<svg width="123" height="122" viewBox="0 0 123 122" fill="none" xmlns="http://www.w3.org/2000/svg">
<path fill-rule="evenodd" clip-rule="evenodd" d="M32.5629 0.476196L64.5067 18.9423V55.8744L32.5629 74.3405L0.619049 55.8744V18.9423L32.5629 0.476196ZM83.8961 45.5531L102.945 56.5649V78.5883L83.8961 89.6001L64.8472 78.5883V56.5649L83.8961 45.5531ZM94.5494 103.073L83.9378 96.9388L73.3262 103.073V115.342L83.9378 121.476L94.5494 115.342V103.073ZM59.0542 75.2558L64.7904 78.5718V85.2039L59.0542 88.5199L53.3179 85.2039V78.5718L59.0542 75.2558ZM122.619 44.49L112.571 38.6812L102.522 44.49V56.1075L112.571 61.9163L122.619 56.1075V44.49Z" fill="url(#paint0_linear)"/>
<defs>
<linearGradient id="paint0_linear" x1="69.9982" y1="0.551253" x2="63.3559" y2="123.224" gradientUnits="userSpaceOnUse">
<stop stop-color="#4C66F1"/>
<stop offset="1" stop-color="#D129C3"/>
</linearGradient>
</defs>
</svg>
