<svg width="87" height="121" viewBox="0 0 87 121" fill="none" xmlns="http://www.w3.org/2000/svg">
<path fill-rule="evenodd" clip-rule="evenodd" d="M22.3104 43.6649C34.2903 43.6649 44.0018 33.9968 44.0018 22.0705C44.0018 10.1443 34.2903 0.476196 22.3104 0.476196C10.3306 0.476196 0.619019 10.1443 0.619019 22.0705C0.619019 33.9968 10.3306 43.6649 22.3104 43.6649ZM54.1095 44.4276C60.0867 44.4127 64.9275 39.5843 64.9275 33.6304C64.9275 27.6673 60.0717 22.8333 54.0818 22.8333C48.0918 22.8333 43.236 27.6673 43.236 33.6304C43.236 39.5843 48.0769 44.4127 54.054 44.4276C48.0769 44.4425 43.236 49.2708 43.236 55.2247C43.236 61.1878 48.0918 66.0219 54.0818 66.0219C60.0717 66.0219 64.9275 61.1878 64.9275 55.2247C64.9275 49.2708 60.0867 44.4425 54.1095 44.4276ZM26.9676 55.2247C29.9565 55.2247 32.3807 52.8174 32.3904 49.8441C32.4002 52.8174 34.8243 55.2247 37.8132 55.2247C40.8081 55.2247 43.236 52.8077 43.236 49.8261C43.236 46.8446 40.8081 44.4275 37.8132 44.4275C34.8243 44.4275 32.4002 46.8349 32.3904 49.8082C32.3807 46.8349 29.9565 44.4275 26.9676 44.4275C23.9726 44.4275 21.5447 46.8446 21.5447 49.8261C21.5447 52.8077 23.9726 55.2247 26.9676 55.2247ZM26.9676 66.0221C29.9565 66.0221 32.3807 63.6147 32.3904 60.6414C32.4002 63.6105 34.8174 66.0153 37.8005 66.0221C34.8114 66.0288 32.3904 68.4433 32.3904 71.4206C32.3904 74.4022 34.8183 76.8192 37.8132 76.8192C40.8081 76.8192 43.236 74.4022 43.236 71.4206C43.236 68.4433 40.815 66.0288 37.8259 66.0221C40.815 66.0153 43.236 63.6008 43.236 60.6235C43.236 57.6419 40.8081 55.2249 37.8132 55.2249C34.8243 55.2249 32.4002 57.6322 32.3904 60.6055C32.3807 57.6322 29.9565 55.2249 26.9676 55.2249C23.9726 55.2249 21.5447 57.6419 21.5447 60.6235C21.5447 63.605 23.9726 66.0221 26.9676 66.0221ZM57.1502 109.542C63.1402 109.542 67.996 104.708 67.996 98.7444C67.996 92.7813 63.1402 87.9473 57.1502 87.9473C51.1603 87.9473 46.3045 92.7813 46.3045 98.7444C46.3045 104.708 51.1603 109.542 57.1502 109.542ZM86.619 55.2247C86.619 61.1878 81.7632 66.0219 75.7733 66.0219C69.7834 66.0219 64.9276 61.1878 64.9276 55.2247C64.9276 49.2616 69.7834 44.4275 75.7733 44.4275C81.7632 44.4275 86.619 49.2616 86.619 55.2247ZM32.3905 82.2178C32.3905 85.1993 29.9626 87.6164 26.9676 87.6164C23.9726 87.6164 21.5447 85.1993 21.5447 82.2178C21.5447 79.2362 23.9726 76.8192 26.9676 76.8192C29.9626 76.8192 32.3905 79.2362 32.3905 82.2178ZM27.5599 109.21C30.5549 109.21 32.9828 106.793 32.9828 103.812C32.9828 100.83 30.5549 98.4132 27.5599 98.4132C24.5649 98.4132 22.137 100.83 22.137 103.812C22.137 106.793 24.5649 109.21 27.5599 109.21ZM32.9828 115.078C32.9828 118.059 30.5549 120.476 27.5599 120.476C24.5649 120.476 22.137 118.059 22.137 115.078C22.137 112.096 24.5649 109.679 27.5599 109.679C30.5549 109.679 32.9828 112.096 32.9828 115.078Z" fill="url(#paint0_linear)"/>
<defs>
<linearGradient id="paint0_linear" x1="-6.93334" y1="-5.72099" x2="22.1951" y2="112.274" gradientUnits="userSpaceOnUse">
<stop stop-color="#008FDF"/>
<stop offset="1" stop-color="#00E3BA"/>
</linearGradient>
</defs>
</svg>
