<svg width="323" height="261" viewBox="0 0 323 261" fill="none" xmlns="http://www.w3.org/2000/svg">
<g clip-path="url(#clip0)">
<rect width="323" height="261" fill="url(#paint0_linear)"/>
<g opacity="0.396">
<path opacity="0.2" d="M55.9603 0.215698L-96.3854 89.6534V358.869L55.9603 269.432V0.215698Z" fill="url(#paint1_linear)"/>
<path opacity="0.2" d="M193.76 91.817L96.0598 149.174V321.825L193.76 264.467V91.817Z" fill="url(#paint2_linear)"/>
<path opacity="0.2" d="M158.347 91.817L87.9177 133.164V257.623L158.347 216.276V91.817Z" fill="url(#paint3_linear)"/>
<path opacity="0.2" d="M120.704 2.33191L70.6759 31.7019V120.108L120.704 90.7383V2.33191Z" fill="url(#paint4_linear)"/>
<path opacity="0.2" d="M163.312 -13.4377L140.772 -0.20498V39.6269L163.312 26.3941V-13.4377Z" fill="url(#paint5_linear)"/>
<path opacity="0.2" d="M182.722 120.108L158.347 134.418L158.347 217.744L182.722 203.434L182.722 120.108Z" fill="url(#paint6_linear)"/>
<path opacity="0.2" d="M148.13 170.371L133.413 179.011V205.018L148.13 196.378V170.371Z" fill="url(#paint7_linear)"/>
<path opacity="0.2" d="M111.009 193.638L76.3677 213.974V275.19L111.009 254.853V193.638Z" fill="url(#paint8_linear)"/>
<path opacity="0.2" d="M197.322 -2.53674L154.622 22.5312V97.988L197.322 72.9201V-2.53674Z" fill="url(#paint9_linear)"/>
<path opacity="0.2" d="M178.979 65.2527L135.285 90.9042V260.04L178.979 234.388V65.2527Z" fill="url(#paint10_linear)"/>
<path opacity="0.2" d="M56.9238 61.2201L32.5486 75.5301V118.605L56.9238 104.295V61.2201Z" fill="url(#paint11_linear)"/>
<path opacity="0.2" d="M107.238 107.986L65.2563 132.632V206.821L107.238 182.174V107.986Z" fill="url(#paint12_linear)"/>
<path opacity="0.2" d="M24.5586 156.623L-32.1158 189.895V290.047L24.5586 256.775V156.623Z" fill="url(#paint13_linear)"/>
<path opacity="0.2" d="M83.9897 8.28381L57.3626 23.9158V70.9696L83.9897 55.3376V8.28381Z" fill="url(#paint14_linear)"/>
<path opacity="0.2" d="M219.21 148.008L251.786 167.133V224.699L219.21 205.575V148.008Z" fill="url(#paint15_linear)"/>
<path opacity="0.2" d="M199.531 89.9124L219.616 101.704V137.196L199.531 125.405V89.9124Z" fill="url(#paint16_linear)"/>
<path opacity="0.2" d="M45.2925 23.1471L-14.2338 58.0932L-14.2339 326.293L45.2924 291.347L45.2925 23.1471Z" fill="url(#paint17_linear)"/>
<path opacity="0.2" d="M281.599 39.6257L305.975 53.9357V97.0102L281.599 82.7002V39.6257Z" fill="url(#paint18_linear)"/>
<path opacity="0.2" d="M212.789 44.0042L255.489 69.0721V144.529L212.789 119.461V44.0042Z" fill="url(#paint19_linear)"/>
<path opacity="0.2" d="M223.976 -59.9999L266.676 -34.932V40.5249L223.976 15.457V-59.9999Z" fill="url(#paint20_linear)"/>
<path opacity="0.2" d="M289.3 -18.3L332 6.76787V82.2247L289.3 57.1568V-18.3Z" fill="url(#paint21_linear)"/>
<path opacity="0.2" d="M187.773 -35.3629L214.197 -19.8504V26.8439L187.773 11.3313V-35.3629Z" fill="url(#paint22_linear)"/>
<path opacity="0.2" d="M255.349 44.0105L292.045 65.5534V130.4L255.349 108.857V44.0105Z" fill="url(#paint23_linear)"/>
<path opacity="0.2" d="M295.02 117.322L328.042 136.708V195.062L295.02 175.676V117.322Z" fill="url(#paint24_linear)"/>
<path opacity="0.2" d="M190.137 195.062L232.837 220.13V365L190.137 339.932V195.062Z" fill="url(#paint25_linear)"/>
</g>
<g style="mix-blend-mode:lighten" opacity="0.8" filter="url(#filter0_f)">
<rect width="167.909" height="266.588" rx="83.9545" transform="matrix(0.443365 -0.896341 0.896097 0.443858 -93.6498 301.786)" fill="url(#paint26_linear)"/>
</g>
</g>
<defs>
<filter id="filter0_f" x="-217.434" y="27.5226" width="560.902" height="516.349" filterUnits="userSpaceOnUse" color-interpolation-filters="sRGB">
<feFlood flood-opacity="0" result="BackgroundImageFix"/>
<feBlend mode="normal" in="SourceGraphic" in2="BackgroundImageFix" result="shape"/>
<feGaussianBlur stdDeviation="76.1418" result="effect1_foregroundBlur"/>
</filter>
<linearGradient id="paint0_linear" x1="161.5" y1="0" x2="161.5" y2="261" gradientUnits="userSpaceOnUse">
<stop stop-color="#312F2F"/>
<stop offset="1" stop-color="#62605D"/>
</linearGradient>
<linearGradient id="paint1_linear" x1="-54.3302" y1="25.4548" x2="69.7815" y2="317.786" gradientUnits="userSpaceOnUse">
<stop stop-opacity="0.92"/>
<stop offset="1" stop-opacity="0"/>
</linearGradient>
<linearGradient id="paint2_linear" x1="123.03" y1="108.003" x2="202.624" y2="295.477" gradientUnits="userSpaceOnUse">
<stop stop-opacity="0.92"/>
<stop offset="1" stop-opacity="0"/>
</linearGradient>
<linearGradient id="paint3_linear" x1="107.36" y1="103.485" x2="164.737" y2="238.63" gradientUnits="userSpaceOnUse">
<stop stop-opacity="0.92"/>
<stop offset="1" stop-opacity="0"/>
</linearGradient>
<linearGradient id="paint4_linear" x1="84.4861" y1="10.62" x2="125.243" y2="106.617" gradientUnits="userSpaceOnUse">
<stop stop-color="white" stop-opacity="0.92"/>
<stop offset="1" stop-color="white" stop-opacity="0"/>
</linearGradient>
<linearGradient id="paint5_linear" x1="146.994" y1="-9.7035" x2="165.357" y2="33.5484" gradientUnits="userSpaceOnUse">
<stop stop-color="white" stop-opacity="0.92"/>
<stop offset="1" stop-color="white" stop-opacity="0"/>
</linearGradient>
<linearGradient id="paint6_linear" x1="165.076" y1="124.147" x2="182.73" y2="199.088" gradientUnits="userSpaceOnUse">
<stop stop-color="white" stop-opacity="0.92"/>
<stop offset="1" stop-color="white" stop-opacity="0"/>
</linearGradient>
<linearGradient id="paint7_linear" x1="137.476" y1="172.809" x2="149.465" y2="201.049" gradientUnits="userSpaceOnUse">
<stop stop-color="white" stop-opacity="0.92"/>
<stop offset="1" stop-color="white" stop-opacity="0"/>
</linearGradient>
<linearGradient id="paint8_linear" x1="85.9303" y1="199.377" x2="114.151" y2="265.848" gradientUnits="userSpaceOnUse">
<stop stop-color="white" stop-opacity="0.92"/>
<stop offset="1" stop-color="white" stop-opacity="0"/>
</linearGradient>
<linearGradient id="paint9_linear" x1="166.409" y1="4.53735" x2="201.196" y2="86.4729" gradientUnits="userSpaceOnUse">
<stop stop-color="white" stop-opacity="0.92"/>
<stop offset="1" stop-color="white" stop-opacity="0"/>
</linearGradient>
<linearGradient id="paint10_linear" x1="147.346" y1="72.4915" x2="182.943" y2="156.334" gradientUnits="userSpaceOnUse">
<stop stop-color="white" stop-opacity="0.92"/>
<stop offset="1" stop-color="white" stop-opacity="0"/>
</linearGradient>
<linearGradient id="paint11_linear" x1="39.2774" y1="65.2583" x2="59.1352" y2="112.031" gradientUnits="userSpaceOnUse">
<stop stop-color="white" stop-opacity="0.92"/>
<stop offset="1" stop-color="white" stop-opacity="0"/>
</linearGradient>
<linearGradient id="paint12_linear" x1="76.8455" y1="114.941" x2="111.047" y2="195.499" gradientUnits="userSpaceOnUse">
<stop stop-color="white" stop-opacity="0.92"/>
<stop offset="1" stop-color="white" stop-opacity="0"/>
</linearGradient>
<linearGradient id="paint13_linear" x1="-16.4708" y1="166.012" x2="29.7004" y2="274.763" gradientUnits="userSpaceOnUse">
<stop stop-color="white" stop-opacity="0.92"/>
<stop offset="1" stop-color="white" stop-opacity="0"/>
</linearGradient>
<linearGradient id="paint14_linear" x1="64.7131" y1="12.6951" x2="86.4054" y2="63.789" gradientUnits="userSpaceOnUse">
<stop stop-color="white" stop-opacity="0.92"/>
<stop offset="1" stop-color="white" stop-opacity="0"/>
</linearGradient>
<linearGradient id="paint15_linear" x1="242.794" y1="153.405" x2="216.255" y2="215.914" gradientUnits="userSpaceOnUse">
<stop stop-color="white" stop-opacity="0.92"/>
<stop offset="1" stop-color="white" stop-opacity="0"/>
</linearGradient>
<linearGradient id="paint16_linear" x1="214.071" y1="93.2398" x2="197.709" y2="131.78" gradientUnits="userSpaceOnUse">
<stop stop-color="white" stop-opacity="0.92"/>
<stop offset="1" stop-color="white" stop-opacity="0"/>
</linearGradient>
<linearGradient id="paint17_linear" x1="2.19836" y1="33.0088" x2="15.5355" y2="245.007" gradientUnits="userSpaceOnUse">
<stop stop-color="white" stop-opacity="0.92"/>
<stop offset="1" stop-color="white" stop-opacity="0"/>
</linearGradient>
<linearGradient id="paint18_linear" x1="299.246" y1="43.664" x2="279.388" y2="90.4368" gradientUnits="userSpaceOnUse">
<stop stop-color="white" stop-opacity="0.92"/>
<stop offset="1" stop-color="white" stop-opacity="0"/>
</linearGradient>
<linearGradient id="paint19_linear" x1="243.702" y1="51.0782" x2="208.915" y2="133.014" gradientUnits="userSpaceOnUse">
<stop stop-color="white" stop-opacity="0.92"/>
<stop offset="1" stop-color="white" stop-opacity="0"/>
</linearGradient>
<linearGradient id="paint20_linear" x1="254.888" y1="-52.9258" x2="220.102" y2="29.0098" gradientUnits="userSpaceOnUse">
<stop stop-color="white" stop-opacity="0.92"/>
<stop offset="1" stop-color="white" stop-opacity="0"/>
</linearGradient>
<linearGradient id="paint21_linear" x1="320.213" y1="-11.226" x2="285.426" y2="70.7096" gradientUnits="userSpaceOnUse">
<stop stop-color="white" stop-opacity="0.92"/>
<stop offset="1" stop-color="white" stop-opacity="0"/>
</linearGradient>
<linearGradient id="paint22_linear" x1="206.903" y1="-30.9853" x2="185.376" y2="19.7181" gradientUnits="userSpaceOnUse">
<stop stop-color="white" stop-opacity="0.92"/>
<stop offset="1" stop-color="white" stop-opacity="0"/>
</linearGradient>
<linearGradient id="paint23_linear" x1="281.915" y1="50.0899" x2="252.02" y2="120.504" gradientUnits="userSpaceOnUse">
<stop stop-color="white" stop-opacity="0.92"/>
<stop offset="1" stop-color="white" stop-opacity="0"/>
</linearGradient>
<linearGradient id="paint24_linear" x1="318.926" y1="122.793" x2="292.024" y2="186.157" gradientUnits="userSpaceOnUse">
<stop stop-color="white" stop-opacity="0.92"/>
<stop offset="1" stop-color="white" stop-opacity="0"/>
</linearGradient>
<linearGradient id="paint25_linear" x1="221.05" y1="202.136" x2="218.142" y2="351.517" gradientUnits="userSpaceOnUse">
<stop stop-color="white" stop-opacity="0.92"/>
<stop offset="1" stop-color="white" stop-opacity="0"/>
</linearGradient>
<linearGradient id="paint26_linear" x1="14.9957" y1="-15.5884" x2="-97.0356" y2="218.698" gradientUnits="userSpaceOnUse">
<stop stop-color="#DD48AA"/>
<stop offset="1" stop-color="#FFE177"/>
</linearGradient>
<clipPath id="clip0">
<rect width="323" height="261" fill="white"/>
</clipPath>
</defs>
</svg>
