<svg width="318" height="259" viewBox="0 0 318 259" fill="none" xmlns="http://www.w3.org/2000/svg">
<g clip-path="url(#clip0)">
<g opacity="0.2">
<path d="M141.416 210.8C161.079 210.8 177.018 194.861 177.018 175.2C177.018 155.539 161.079 139.6 141.416 139.6C121.754 139.6 105.815 155.539 105.815 175.2C105.815 194.861 121.754 210.8 141.416 210.8Z" fill="black"/>
<path d="M-0.990997 210.8C18.6713 210.8 34.6108 194.861 34.6108 175.2C34.6108 155.539 18.6713 139.6 -0.990997 139.6C-20.6533 139.6 -36.5928 155.539 -36.5928 175.2C-36.5928 194.861 -20.6533 210.8 -0.990997 210.8Z" fill="black"/>
<path d="M52.4117 175.2C62.2429 175.2 70.2126 167.231 70.2126 157.4C70.2126 147.569 62.2429 139.6 52.4117 139.6C42.5806 139.6 34.6108 147.569 34.6108 157.4C34.6108 167.231 42.5806 175.2 52.4117 175.2Z" fill="black"/>
<path d="M88.0132 210.8C97.8444 210.8 105.814 202.831 105.814 193C105.814 183.169 97.8444 175.2 88.0132 175.2C78.182 175.2 70.2123 183.169 70.2123 193C70.2123 202.831 78.182 210.8 88.0132 210.8Z" fill="black"/>
<path d="M52.4117 139.6C62.2429 139.6 70.2126 131.63 70.2126 121.8C70.2126 111.969 62.2429 104 52.4117 104C42.5806 104 34.6108 111.969 34.6108 121.8C34.6108 131.63 42.5806 139.6 52.4117 139.6Z" fill="black"/>
<path d="M88.0132 32.8001C97.8443 32.8001 105.814 24.8307 105.814 15.0001C105.814 5.1694 97.8443 -2.79993 88.0132 -2.79993C78.182 -2.79993 70.2123 5.1694 70.2123 15.0001C70.2123 24.8307 78.182 32.8001 88.0132 32.8001Z" fill="black"/>
<path d="M88.0132 68.3997C97.8443 68.3997 105.814 60.4303 105.814 50.5997C105.814 40.769 97.8443 32.7997 88.0132 32.7997C78.182 32.7997 70.2123 40.769 70.2123 50.5997C70.2123 60.4303 78.182 68.3997 88.0132 68.3997Z" fill="black"/>
<path d="M16.81 104C26.6412 104 34.6109 96.0305 34.6109 86.1998C34.6109 76.3691 26.6412 68.3998 16.81 68.3998C6.97888 68.3998 -0.990845 76.3691 -0.990845 86.1998C-0.990845 96.0305 6.97888 104 16.81 104Z" fill="black"/>
<path d="M16.81 139.6C26.6412 139.6 34.6109 131.63 34.6109 121.8C34.6109 111.969 26.6412 104 16.81 104C6.97888 104 -0.990845 111.969 -0.990845 121.8C-0.990845 131.63 6.97888 139.6 16.81 139.6Z" fill="black"/>
<path d="M123.615 32.8001C133.447 32.8001 141.416 24.8307 141.416 15.0001C141.416 5.1694 133.447 -2.79993 123.615 -2.79993C113.784 -2.79993 105.815 5.1694 105.815 15.0001C105.815 24.8307 113.784 32.8001 123.615 32.8001Z" fill="black"/>
<path d="M159.217 32.8001C169.048 32.8001 177.018 24.8307 177.018 15.0001C177.018 5.1694 169.048 -2.79993 159.217 -2.79993C149.386 -2.79993 141.416 5.1694 141.416 15.0001C141.416 24.8307 149.386 32.8001 159.217 32.8001Z" fill="black"/>
<path d="M123.615 68.3997C133.447 68.3997 141.416 60.4303 141.416 50.5997C141.416 40.769 133.447 32.7997 123.615 32.7997C113.784 32.7997 105.815 40.769 105.815 50.5997C105.815 60.4303 113.784 68.3997 123.615 68.3997Z" fill="black"/>
<path d="M159.217 68.3997C169.048 68.3997 177.018 60.4303 177.018 50.5997C177.018 40.769 169.048 32.7997 159.217 32.7997C149.386 32.7997 141.416 40.769 141.416 50.5997C141.416 60.4303 149.386 68.3997 159.217 68.3997Z" fill="black"/>
<path d="M70.2126 282C89.8749 282 105.814 266.061 105.814 246.4C105.814 226.739 89.8749 210.8 70.2126 210.8C50.5503 210.8 34.6108 226.739 34.6108 246.4C34.6108 266.061 50.5503 282 70.2126 282Z" fill="black"/>
<path d="M141.416 282C161.079 282 177.018 266.061 177.018 246.4C177.018 226.739 161.079 210.8 141.416 210.8C121.754 210.8 105.815 226.739 105.815 246.4C105.815 266.061 121.754 282 141.416 282Z" fill="black"/>
<path d="M283.823 282C303.486 282 319.425 266.061 319.425 246.4C319.425 226.739 303.486 210.8 283.823 210.8C264.161 210.8 248.222 226.739 248.222 246.4C248.222 266.061 264.161 282 283.823 282Z" fill="black"/>
<path d="M212.619 139.6C232.282 139.6 248.221 123.661 248.221 104C248.221 84.3384 232.282 68.3998 212.619 68.3998C192.957 68.3998 177.018 84.3384 177.018 104C177.018 123.661 192.957 139.6 212.619 139.6Z" fill="black"/>
<path d="M123.615 104C133.447 104 141.416 96.0305 141.416 86.1998C141.416 76.3691 133.447 68.3998 123.615 68.3998C113.784 68.3998 105.815 76.3691 105.815 86.1998C105.815 96.0305 113.784 104 123.615 104Z" fill="black"/>
<path d="M159.217 104C169.048 104 177.018 96.0305 177.018 86.1998C177.018 76.3691 169.048 68.3998 159.217 68.3998C149.386 68.3998 141.416 76.3691 141.416 86.1998C141.416 96.0305 149.386 104 159.217 104Z" fill="black"/>
<path d="M123.615 139.6C133.447 139.6 141.416 131.63 141.416 121.8C141.416 111.969 133.447 104 123.615 104C113.784 104 105.815 111.969 105.815 121.8C105.815 131.63 113.784 139.6 123.615 139.6Z" fill="black"/>
<path d="M159.217 139.6C169.048 139.6 177.018 131.63 177.018 121.8C177.018 111.969 169.048 104 159.217 104C149.386 104 141.416 111.969 141.416 121.8C141.416 131.63 149.386 139.6 159.217 139.6Z" fill="black"/>
<path d="M96.9136 86.1998C101.829 86.1998 105.814 82.2151 105.814 77.2998C105.814 72.3844 101.829 68.3998 96.9136 68.3998C91.998 68.3998 88.0132 72.3844 88.0132 77.2998C88.0132 82.2151 91.998 86.1998 96.9136 86.1998Z" fill="black"/>
<path d="M96.9136 104C101.829 104 105.814 100.015 105.814 95.0997C105.814 90.1844 101.829 86.1997 96.9136 86.1997C91.998 86.1997 88.0132 90.1844 88.0132 95.0997C88.0132 100.015 91.998 104 96.9136 104Z" fill="black"/>
<path d="M61.3121 86.1998C66.2276 86.1998 70.2125 82.2151 70.2125 77.2998C70.2125 72.3844 66.2276 68.3998 61.3121 68.3998C56.3965 68.3998 52.4116 72.3844 52.4116 77.2998C52.4116 82.2151 56.3965 86.1998 61.3121 86.1998Z" fill="black"/>
<path d="M43.5113 104C48.4269 104 52.4117 100.015 52.4117 95.0997C52.4117 90.1844 48.4269 86.1997 43.5113 86.1997C38.5957 86.1997 34.6108 90.1844 34.6108 95.0997C34.6108 100.015 38.5957 104 43.5113 104Z" fill="black"/>
<path d="M61.3121 104C66.2276 104 70.2125 100.015 70.2125 95.0997C70.2125 90.1844 66.2276 86.1997 61.3121 86.1997C56.3965 86.1997 52.4116 90.1844 52.4116 95.0997C52.4116 100.015 56.3965 104 61.3121 104Z" fill="black"/>
<path d="M39.0611 77.2998C41.5188 77.2998 43.5113 75.3074 43.5113 72.8498C43.5113 70.3921 41.5188 68.3998 39.0611 68.3998C36.6033 68.3998 34.6108 70.3921 34.6108 72.8498C34.6108 75.3074 36.6033 77.2998 39.0611 77.2998Z" fill="black"/>
<path d="M47.9616 77.2998C50.4194 77.2998 52.4118 75.3074 52.4118 72.8498C52.4118 70.3921 50.4194 68.3998 47.9616 68.3998C45.5038 68.3998 43.5114 70.3921 43.5114 72.8498C43.5114 75.3074 45.5038 77.2998 47.9616 77.2998Z" fill="black"/>
<path d="M39.0611 86.1998C41.5188 86.1998 43.5113 84.2075 43.5113 81.7498C43.5113 79.2921 41.5188 77.2998 39.0611 77.2998C36.6033 77.2998 34.6108 79.2921 34.6108 81.7498C34.6108 84.2075 36.6033 86.1998 39.0611 86.1998Z" fill="black"/>
<path d="M47.9616 86.1998C50.4194 86.1998 52.4118 84.2075 52.4118 81.7498C52.4118 79.2921 50.4194 77.2998 47.9616 77.2998C45.5038 77.2998 43.5114 79.2921 43.5114 81.7498C43.5114 84.2075 45.5038 86.1998 47.9616 86.1998Z" fill="black"/>
<path d="M7.90947 50.5997C12.8251 50.5997 16.8099 46.615 16.8099 41.6997C16.8099 36.7843 12.8251 32.7997 7.90947 32.7997C2.9939 32.7997 -0.990967 36.7843 -0.990967 41.6997C-0.990967 46.615 2.9939 50.5997 7.90947 50.5997Z" fill="black"/>
<path d="M25.7101 50.5997C30.6257 50.5997 34.6106 46.615 34.6106 41.6997C34.6106 36.7843 30.6257 32.7997 25.7101 32.7997C20.7946 32.7997 16.8097 36.7843 16.8097 41.6997C16.8097 46.615 20.7946 50.5997 25.7101 50.5997Z" fill="black"/>
<path d="M43.5112 50.5997C48.4267 50.5997 52.4116 46.615 52.4116 41.6997C52.4116 36.7843 48.4267 32.7997 43.5112 32.7997C38.5956 32.7997 34.6107 36.7843 34.6107 41.6997C34.6107 46.615 38.5956 50.5997 43.5112 50.5997Z" fill="black"/>
<path d="M43.5112 68.3998C48.4267 68.3998 52.4116 64.4152 52.4116 59.4998C52.4116 54.5845 48.4267 50.5999 43.5112 50.5999C38.5956 50.5999 34.6107 54.5845 34.6107 59.4998C34.6107 64.4152 38.5956 68.3998 43.5112 68.3998Z" fill="black"/>
<path d="M21.2599 59.4998C23.7177 59.4998 25.7102 57.5075 25.7102 55.0498C25.7102 52.5922 23.7177 50.5999 21.2599 50.5999C18.8021 50.5999 16.8097 52.5922 16.8097 55.0498C16.8097 57.5075 18.8021 59.4998 21.2599 59.4998Z" fill="black"/>
<path d="M30.1605 59.4998C32.6183 59.4998 34.6108 57.5075 34.6108 55.0498C34.6108 52.5922 32.6183 50.5999 30.1605 50.5999C27.7028 50.5999 25.7103 52.5922 25.7103 55.0498C25.7103 57.5075 27.7028 59.4998 30.1605 59.4998Z" fill="black"/>
<path d="M21.2599 68.4C23.7177 68.4 25.7102 66.4077 25.7102 63.95C25.7102 61.4923 23.7177 59.5 21.2599 59.5C18.8021 59.5 16.8097 61.4923 16.8097 63.95C16.8097 66.4077 18.8021 68.4 21.2599 68.4Z" fill="black"/>
<path d="M30.1605 68.4C32.6183 68.4 34.6108 66.4077 34.6108 63.95C34.6108 61.4923 32.6183 59.5 30.1605 59.5C27.7028 59.5 25.7103 61.4923 25.7103 63.95C25.7103 66.4077 27.7028 68.4 30.1605 68.4Z" fill="black"/>
<path d="M3.45925 59.4998C5.91704 59.4998 7.90947 57.5075 7.90947 55.0498C7.90947 52.5922 5.91704 50.5999 3.45925 50.5999C1.00146 50.5999 -0.990967 52.5922 -0.990967 55.0498C-0.990967 57.5075 1.00146 59.4998 3.45925 59.4998Z" fill="black"/>
<path d="M12.3596 59.4998C14.8174 59.4998 16.8099 57.5075 16.8099 55.0498C16.8099 52.5922 14.8174 50.5999 12.3596 50.5999C9.90186 50.5999 7.90942 52.5922 7.90942 55.0498C7.90942 57.5075 9.90186 59.4998 12.3596 59.4998Z" fill="black"/>
<path d="M3.45925 68.4C5.91704 68.4 7.90947 66.4077 7.90947 63.95C7.90947 61.4923 5.91704 59.5 3.45925 59.5C1.00146 59.5 -0.990967 61.4923 -0.990967 63.95C-0.990967 66.4077 1.00146 68.4 3.45925 68.4Z" fill="black"/>
<path d="M12.3596 68.4C14.8174 68.4 16.8099 66.4077 16.8099 63.95C16.8099 61.4923 14.8174 59.5 12.3596 59.5C9.90186 59.5 7.90942 61.4923 7.90942 63.95C7.90942 66.4077 9.90186 68.4 12.3596 68.4Z" fill="black"/>
<path d="M16.81 246.4C26.6412 246.4 34.6109 238.431 34.6109 228.6C34.6109 218.769 26.6412 210.8 16.81 210.8C6.97888 210.8 -0.990845 218.769 -0.990845 228.6C-0.990845 238.431 6.97888 246.4 16.81 246.4Z" fill="black"/>
<path d="M16.81 282C26.6412 282 34.6109 274.031 34.6109 264.2C34.6109 254.369 26.6412 246.4 16.81 246.4C6.97888 246.4 -0.990845 254.369 -0.990845 264.2C-0.990845 274.031 6.97888 282 16.81 282Z" fill="black"/>
<path d="M43.5113 193C48.4269 193 52.4117 189.015 52.4117 184.1C52.4117 179.185 48.4269 175.2 43.5113 175.2C38.5957 175.2 34.6108 179.185 34.6108 184.1C34.6108 189.015 38.5957 193 43.5113 193Z" fill="black"/>
<path d="M61.3121 193C66.2276 193 70.2125 189.015 70.2125 184.1C70.2125 179.185 66.2276 175.2 61.3121 175.2C56.3965 175.2 52.4116 179.185 52.4116 184.1C52.4116 189.015 56.3965 193 61.3121 193Z" fill="black"/>
<path d="M43.5113 210.8C48.4269 210.8 52.4117 206.815 52.4117 201.9C52.4117 196.985 48.4269 193 43.5113 193C38.5957 193 34.6108 196.985 34.6108 201.9C34.6108 206.815 38.5957 210.8 43.5113 210.8Z" fill="black"/>
<path d="M61.3121 210.8C66.2276 210.8 70.2125 206.815 70.2125 201.9C70.2125 196.985 66.2276 193 61.3121 193C56.3965 193 52.4116 196.985 52.4116 201.9C52.4116 206.815 56.3965 210.8 61.3121 210.8Z" fill="black"/>
<path d="M79.1127 157.4C84.0283 157.4 88.0132 153.415 88.0132 148.5C88.0132 143.585 84.0283 139.6 79.1127 139.6C74.1971 139.6 70.2123 143.585 70.2123 148.5C70.2123 153.415 74.1971 157.4 79.1127 157.4Z" fill="black"/>
<path d="M96.9136 157.4C101.829 157.4 105.814 153.415 105.814 148.5C105.814 143.585 101.829 139.6 96.9136 139.6C91.998 139.6 88.0132 143.585 88.0132 148.5C88.0132 153.415 91.998 157.4 96.9136 157.4Z" fill="black"/>
<path d="M79.1127 175.2C84.0283 175.2 88.0132 171.215 88.0132 166.3C88.0132 161.385 84.0283 157.4 79.1127 157.4C74.1971 157.4 70.2123 161.385 70.2123 166.3C70.2123 171.215 74.1971 175.2 79.1127 175.2Z" fill="black"/>
<path d="M96.9136 175.2C101.829 175.2 105.814 171.215 105.814 166.3C105.814 161.385 101.829 157.4 96.9136 157.4C91.998 157.4 88.0132 161.385 88.0132 166.3C88.0132 171.215 91.998 175.2 96.9136 175.2Z" fill="black"/>
<path d="M79.1127 121.8C84.0283 121.8 88.0132 117.815 88.0132 112.9C88.0132 107.984 84.0283 104 79.1127 104C74.1971 104 70.2123 107.984 70.2123 112.9C70.2123 117.815 74.1971 121.8 79.1127 121.8Z" fill="black"/>
<path d="M96.9136 121.8C101.829 121.8 105.814 117.815 105.814 112.9C105.814 107.984 101.829 104 96.9136 104C91.998 104 88.0132 107.984 88.0132 112.9C88.0132 117.815 91.998 121.8 96.9136 121.8Z" fill="black"/>
<path d="M79.1127 139.6C84.0283 139.6 88.0132 135.615 88.0132 130.7C88.0132 125.784 84.0283 121.8 79.1127 121.8C74.1971 121.8 70.2123 125.784 70.2123 130.7C70.2123 135.615 74.1971 139.6 79.1127 139.6Z" fill="black"/>
<path d="M96.9136 139.6C101.829 139.6 105.814 135.615 105.814 130.7C105.814 125.784 101.829 121.8 96.9136 121.8C91.998 121.8 88.0132 125.784 88.0132 130.7C88.0132 135.615 91.998 139.6 96.9136 139.6Z" fill="black"/>
<path d="M74.6625 95.0997C77.1203 95.0997 79.1128 93.1074 79.1128 90.6497C79.1128 88.192 77.1203 86.1997 74.6625 86.1997C72.2047 86.1997 70.2123 88.192 70.2123 90.6497C70.2123 93.1074 72.2047 95.0997 74.6625 95.0997Z" fill="black"/>
<path d="M83.5634 95.0997C86.0211 95.0997 88.0136 93.1074 88.0136 90.6497C88.0136 88.192 86.0211 86.1997 83.5634 86.1997C81.1056 86.1997 79.1132 88.192 79.1132 90.6497C79.1132 93.1074 81.1056 95.0997 83.5634 95.0997Z" fill="black"/>
<path d="M74.6625 104C77.1203 104 79.1128 102.008 79.1128 99.5502C79.1128 97.0925 77.1203 95.1002 74.6625 95.1002C72.2047 95.1002 70.2123 97.0925 70.2123 99.5502C70.2123 102.008 72.2047 104 74.6625 104Z" fill="black"/>
<path d="M83.5634 104C86.0211 104 88.0136 102.008 88.0136 99.5502C88.0136 97.0925 86.0211 95.1002 83.5634 95.1002C81.1056 95.1002 79.1132 97.0925 79.1132 99.5502C79.1132 102.008 81.1056 104 83.5634 104Z" fill="black"/>
<path d="M74.6625 77.2998C77.1203 77.2998 79.1128 75.3074 79.1128 72.8498C79.1128 70.3921 77.1203 68.3998 74.6625 68.3998C72.2047 68.3998 70.2123 70.3921 70.2123 72.8498C70.2123 75.3074 72.2047 77.2998 74.6625 77.2998Z" fill="black"/>
<path d="M83.5634 77.2998C86.0211 77.2998 88.0136 75.3074 88.0136 72.8498C88.0136 70.3921 86.0211 68.3998 83.5634 68.3998C81.1056 68.3998 79.1132 70.3921 79.1132 72.8498C79.1132 75.3074 81.1056 77.2998 83.5634 77.2998Z" fill="black"/>
<path d="M74.6625 86.1998C77.1203 86.1998 79.1128 84.2075 79.1128 81.7498C79.1128 79.2921 77.1203 77.2998 74.6625 77.2998C72.2047 77.2998 70.2123 79.2921 70.2123 81.7498C70.2123 84.2075 72.2047 86.1998 74.6625 86.1998Z" fill="black"/>
<path d="M83.5634 86.1998C86.0211 86.1998 88.0136 84.2075 88.0136 81.7498C88.0136 79.2921 86.0211 77.2998 83.5634 77.2998C81.1056 77.2998 79.1132 79.2921 79.1132 81.7498C79.1132 84.2075 81.1056 86.1998 83.5634 86.1998Z" fill="black"/>
<path d="M56.8618 59.4998C59.3196 59.4998 61.312 57.5075 61.312 55.0498C61.312 52.5922 59.3196 50.5999 56.8618 50.5999C54.404 50.5999 52.4116 52.5922 52.4116 55.0498C52.4116 57.5075 54.404 59.4998 56.8618 59.4998Z" fill="black"/>
<path d="M65.7625 59.4998C68.2203 59.4998 70.2127 57.5075 70.2127 55.0498C70.2127 52.5922 68.2203 50.5999 65.7625 50.5999C63.3047 50.5999 61.3123 52.5922 61.3123 55.0498C61.3123 57.5075 63.3047 59.4998 65.7625 59.4998Z" fill="black"/>
<path d="M56.8618 68.4C59.3196 68.4 61.312 66.4077 61.312 63.95C61.312 61.4923 59.3196 59.5 56.8618 59.5C54.404 59.5 52.4116 61.4923 52.4116 63.95C52.4116 66.4077 54.404 68.4 56.8618 68.4Z" fill="black"/>
<path d="M65.7625 68.4C68.2203 68.4 70.2127 66.4077 70.2127 63.95C70.2127 61.4923 68.2203 59.5 65.7625 59.5C63.3047 59.5 61.3123 61.4923 61.3123 63.95C61.3123 66.4077 63.3047 68.4 65.7625 68.4Z" fill="black"/>
<path d="M56.8618 41.6997C59.3196 41.6997 61.312 39.7074 61.312 37.2497C61.312 34.792 59.3196 32.7997 56.8618 32.7997C54.404 32.7997 52.4116 34.792 52.4116 37.2497C52.4116 39.7074 54.404 41.6997 56.8618 41.6997Z" fill="black"/>
<path d="M65.7625 41.6997C68.2203 41.6997 70.2127 39.7074 70.2127 37.2497C70.2127 34.792 68.2203 32.7997 65.7625 32.7997C63.3047 32.7997 61.3123 34.792 61.3123 37.2497C61.3123 39.7074 63.3047 41.6997 65.7625 41.6997Z" fill="black"/>
<path d="M56.8618 50.6C59.3196 50.6 61.312 48.6076 61.312 46.15C61.312 43.6923 59.3196 41.7 56.8618 41.7C54.404 41.7 52.4116 43.6923 52.4116 46.15C52.4116 48.6076 54.404 50.6 56.8618 50.6Z" fill="black"/>
<path d="M65.7625 50.6C68.2203 50.6 70.2127 48.6076 70.2127 46.15C70.2127 43.6923 68.2203 41.7 65.7625 41.7C63.3047 41.7 61.3123 43.6923 61.3123 46.15C61.3123 48.6076 63.3047 50.6 65.7625 50.6Z" fill="black"/>
<path d="M43.5112 15.0001C48.4267 15.0001 52.4116 11.0154 52.4116 6.10007C52.4116 1.18474 48.4267 -2.79993 43.5112 -2.79993C38.5956 -2.79993 34.6107 1.18474 34.6107 6.10007C34.6107 11.0154 38.5956 15.0001 43.5112 15.0001Z" fill="black"/>
<path d="M61.3121 15.0001C66.2276 15.0001 70.2125 11.0154 70.2125 6.10007C70.2125 1.18474 66.2276 -2.79993 61.3121 -2.79993C56.3965 -2.79993 52.4116 1.18474 52.4116 6.10007C52.4116 11.0154 56.3965 15.0001 61.3121 15.0001Z" fill="black"/>
<path d="M43.5112 32.7999C48.4267 32.7999 52.4116 28.8152 52.4116 23.8999C52.4116 18.9845 48.4267 14.9999 43.5112 14.9999C38.5956 14.9999 34.6107 18.9845 34.6107 23.8999C34.6107 28.8152 38.5956 32.7999 43.5112 32.7999Z" fill="black"/>
<path d="M61.3121 32.7999C66.2276 32.7999 70.2125 28.8152 70.2125 23.8999C70.2125 18.9845 66.2276 14.9999 61.3121 14.9999C56.3965 14.9999 52.4116 18.9845 52.4116 23.8999C52.4116 28.8152 56.3965 32.7999 61.3121 32.7999Z" fill="black"/>
<path d="M185.918 15.0001C190.834 15.0001 194.818 11.0154 194.818 6.10007C194.818 1.18474 190.834 -2.79993 185.918 -2.79993C181.002 -2.79993 177.018 1.18474 177.018 6.10007C177.018 11.0154 181.002 15.0001 185.918 15.0001Z" fill="black"/>
<path d="M203.719 15.0001C208.635 15.0001 212.619 11.0154 212.619 6.10007C212.619 1.18474 208.635 -2.79993 203.719 -2.79993C198.803 -2.79993 194.818 1.18474 194.818 6.10007C194.818 11.0154 198.803 15.0001 203.719 15.0001Z" fill="black"/>
<path d="M185.918 32.7999C190.834 32.7999 194.818 28.8152 194.818 23.8999C194.818 18.9845 190.834 14.9999 185.918 14.9999C181.002 14.9999 177.018 18.9845 177.018 23.8999C177.018 28.8152 181.002 32.7999 185.918 32.7999Z" fill="black"/>
<path d="M203.719 32.7999C208.635 32.7999 212.619 28.8152 212.619 23.8999C212.619 18.9845 208.635 14.9999 203.719 14.9999C198.803 14.9999 194.818 18.9845 194.818 23.8999C194.818 28.8152 198.803 32.7999 203.719 32.7999Z" fill="black"/>
<path d="M7.90947 15.0001C12.8251 15.0001 16.8099 11.0154 16.8099 6.10007C16.8099 1.18474 12.8251 -2.79993 7.90947 -2.79993C2.9939 -2.79993 -0.990967 1.18474 -0.990967 6.10007C-0.990967 11.0154 2.9939 15.0001 7.90947 15.0001Z" fill="black"/>
<path d="M25.7101 15.0001C30.6257 15.0001 34.6106 11.0154 34.6106 6.10007C34.6106 1.18474 30.6257 -2.79993 25.7101 -2.79993C20.7946 -2.79993 16.8097 1.18474 16.8097 6.10007C16.8097 11.0154 20.7946 15.0001 25.7101 15.0001Z" fill="black"/>
<path d="M7.90947 32.7999C12.8251 32.7999 16.8099 28.8152 16.8099 23.8999C16.8099 18.9845 12.8251 14.9999 7.90947 14.9999C2.9939 14.9999 -0.990967 18.9845 -0.990967 23.8999C-0.990967 28.8152 2.9939 32.7999 7.90947 32.7999Z" fill="black"/>
<path d="M25.7101 32.7999C30.6257 32.7999 34.6106 28.8152 34.6106 23.8999C34.6106 18.9845 30.6257 14.9999 25.7101 14.9999C20.7946 14.9999 16.8097 18.9845 16.8097 23.8999C16.8097 28.8152 20.7946 32.7999 25.7101 32.7999Z" fill="black"/>
<path d="M194.818 246.4C204.65 246.4 212.619 238.431 212.619 228.6C212.619 218.769 204.65 210.8 194.818 210.8C184.987 210.8 177.018 218.769 177.018 228.6C177.018 238.431 184.987 246.4 194.818 246.4Z" fill="black"/>
<path d="M230.421 246.4C240.252 246.4 248.222 238.431 248.222 228.6C248.222 218.769 240.252 210.8 230.421 210.8C220.59 210.8 212.62 218.769 212.62 228.6C212.62 238.431 220.59 246.4 230.421 246.4Z" fill="black"/>
<path d="M194.818 282C204.65 282 212.619 274.031 212.619 264.2C212.619 254.369 204.65 246.4 194.818 246.4C184.987 246.4 177.018 254.369 177.018 264.2C177.018 274.031 184.987 282 194.818 282Z" fill="black"/>
<path d="M230.421 282C240.252 282 248.222 274.031 248.222 264.2C248.222 254.369 240.252 246.4 230.421 246.4C220.59 246.4 212.62 254.369 212.62 264.2C212.62 274.031 220.59 282 230.421 282Z" fill="black"/>
<path d="M266.022 32.8001C275.853 32.8001 283.823 24.8307 283.823 15.0001C283.823 5.1694 275.853 -2.79993 266.022 -2.79993C256.191 -2.79993 248.221 5.1694 248.221 15.0001C248.221 24.8307 256.191 32.8001 266.022 32.8001Z" fill="black"/>
<path d="M301.624 32.8001C311.455 32.8001 319.425 24.8307 319.425 15.0001C319.425 5.1694 311.455 -2.79993 301.624 -2.79993C291.793 -2.79993 283.823 5.1694 283.823 15.0001C283.823 24.8307 291.793 32.8001 301.624 32.8001Z" fill="black"/>
<path d="M266.022 68.3997C275.853 68.3997 283.823 60.4303 283.823 50.5997C283.823 40.769 275.853 32.7997 266.022 32.7997C256.191 32.7997 248.221 40.769 248.221 50.5997C248.221 60.4303 256.191 68.3997 266.022 68.3997Z" fill="black"/>
<path d="M301.624 68.3997C311.455 68.3997 319.425 60.4303 319.425 50.5997C319.425 40.769 311.455 32.7997 301.624 32.7997C291.793 32.7997 283.823 40.769 283.823 50.5997C283.823 60.4303 291.793 68.3997 301.624 68.3997Z" fill="black"/>
<path d="M230.421 32.8001C240.252 32.8001 248.222 24.8307 248.222 15.0001C248.222 5.1694 240.252 -2.79993 230.421 -2.79993C220.59 -2.79993 212.62 5.1694 212.62 15.0001C212.62 24.8307 220.59 32.8001 230.421 32.8001Z" fill="black"/>
<path d="M194.818 68.3997C204.65 68.3997 212.619 60.4303 212.619 50.5997C212.619 40.769 204.65 32.7997 194.818 32.7997C184.987 32.7997 177.018 40.769 177.018 50.5997C177.018 60.4303 184.987 68.3997 194.818 68.3997Z" fill="black"/>
<path d="M230.421 68.3997C240.252 68.3997 248.222 60.4303 248.222 50.5997C248.222 40.769 240.252 32.7997 230.421 32.7997C220.59 32.7997 212.62 40.769 212.62 50.5997C212.62 60.4303 220.59 68.3997 230.421 68.3997Z" fill="black"/>
<path d="M266.023 104C275.854 104 283.823 96.0305 283.823 86.1998C283.823 76.3691 275.854 68.3998 266.023 68.3998C256.191 68.3998 248.222 76.3691 248.222 86.1998C248.222 96.0305 256.191 104 266.023 104Z" fill="black"/>
<path d="M301.624 104C311.455 104 319.425 96.0305 319.425 86.1998C319.425 76.3691 311.455 68.3998 301.624 68.3998C291.793 68.3998 283.823 76.3691 283.823 86.1998C283.823 96.0305 291.793 104 301.624 104Z" fill="black"/>
<path d="M266.023 139.6C275.854 139.6 283.823 131.63 283.823 121.8C283.823 111.969 275.854 104 266.023 104C256.191 104 248.222 111.969 248.222 121.8C248.222 131.63 256.191 139.6 266.023 139.6Z" fill="black"/>
<path d="M301.624 139.6C311.455 139.6 319.425 131.63 319.425 121.8C319.425 111.969 311.455 104 301.624 104C291.793 104 283.823 111.969 283.823 121.8C283.823 131.63 291.793 139.6 301.624 139.6Z" fill="black"/>
<path d="M266.023 175.2C275.854 175.2 283.823 167.231 283.823 157.4C283.823 147.569 275.854 139.6 266.023 139.6C256.191 139.6 248.222 147.569 248.222 157.4C248.222 167.231 256.191 175.2 266.023 175.2Z" fill="black"/>
<path d="M301.624 175.2C311.455 175.2 319.425 167.231 319.425 157.4C319.425 147.569 311.455 139.6 301.624 139.6C291.793 139.6 283.823 147.569 283.823 157.4C283.823 167.231 291.793 175.2 301.624 175.2Z" fill="black"/>
<path d="M194.818 175.2C204.65 175.2 212.619 167.231 212.619 157.4C212.619 147.569 204.65 139.6 194.818 139.6C184.987 139.6 177.018 147.569 177.018 157.4C177.018 167.231 184.987 175.2 194.818 175.2Z" fill="black"/>
<path d="M230.421 175.2C240.252 175.2 248.222 167.231 248.222 157.4C248.222 147.569 240.252 139.6 230.421 139.6C220.59 139.6 212.62 147.569 212.62 157.4C212.62 167.231 220.59 175.2 230.421 175.2Z" fill="black"/>
<path d="M194.818 210.8C204.65 210.8 212.619 202.831 212.619 193C212.619 183.169 204.65 175.2 194.818 175.2C184.987 175.2 177.018 183.169 177.018 193C177.018 202.831 184.987 210.8 194.818 210.8Z" fill="black"/>
<path d="M221.52 193C226.436 193 230.421 189.015 230.421 184.1C230.421 179.185 226.436 175.2 221.52 175.2C216.605 175.2 212.62 179.185 212.62 184.1C212.62 189.015 216.605 193 221.52 193Z" fill="black"/>
<path d="M239.321 193C244.236 193 248.221 189.015 248.221 184.1C248.221 179.185 244.236 175.2 239.321 175.2C234.405 175.2 230.42 179.185 230.42 184.1C230.42 189.015 234.405 193 239.321 193Z" fill="black"/>
<path d="M221.52 210.8C226.436 210.8 230.421 206.815 230.421 201.9C230.421 196.985 226.436 193 221.52 193C216.605 193 212.62 196.985 212.62 201.9C212.62 206.815 216.605 210.8 221.52 210.8Z" fill="black"/>
<path d="M239.321 210.8C244.236 210.8 248.221 206.815 248.221 201.9C248.221 196.985 244.236 193 239.321 193C234.405 193 230.42 196.985 230.42 201.9C230.42 206.815 234.405 210.8 239.321 210.8Z" fill="black"/>
<path d="M257.122 193C262.038 193 266.023 189.015 266.023 184.1C266.023 179.185 262.038 175.2 257.122 175.2C252.207 175.2 248.222 179.185 248.222 184.1C248.222 189.015 252.207 193 257.122 193Z" fill="black"/>
<path d="M274.923 193C279.838 193 283.823 189.015 283.823 184.1C283.823 179.185 279.838 175.2 274.923 175.2C270.007 175.2 266.022 179.185 266.022 184.1C266.022 189.015 270.007 193 274.923 193Z" fill="black"/>
<path d="M257.122 210.8C262.038 210.8 266.023 206.815 266.023 201.9C266.023 196.985 262.038 193 257.122 193C252.207 193 248.222 196.985 248.222 201.9C248.222 206.815 252.207 210.8 257.122 210.8Z" fill="black"/>
<path d="M274.923 210.8C279.838 210.8 283.823 206.815 283.823 201.9C283.823 196.985 279.838 193 274.923 193C270.007 193 266.022 196.985 266.022 201.9C266.022 206.815 270.007 210.8 274.923 210.8Z" fill="black"/>
<path d="M292.724 193C297.639 193 301.624 189.015 301.624 184.1C301.624 179.185 297.639 175.2 292.724 175.2C287.808 175.2 283.823 179.185 283.823 184.1C283.823 189.015 287.808 193 292.724 193Z" fill="black"/>
<path d="M310.524 193C315.44 193 319.425 189.015 319.425 184.1C319.425 179.185 315.44 175.2 310.524 175.2C305.609 175.2 301.624 179.185 301.624 184.1C301.624 189.015 305.609 193 310.524 193Z" fill="black"/>
<path d="M292.724 210.8C297.639 210.8 301.624 206.815 301.624 201.9C301.624 196.985 297.639 193 292.724 193C287.808 193 283.823 196.985 283.823 201.9C283.823 206.815 287.808 210.8 292.724 210.8Z" fill="black"/>
<path d="M310.524 210.8C315.44 210.8 319.425 206.815 319.425 201.9C319.425 196.985 315.44 193 310.524 193C305.609 193 301.624 196.985 301.624 201.9C301.624 206.815 305.609 210.8 310.524 210.8Z" fill="black"/>
</g>
<g style="mix-blend-mode:lighten" opacity="0.8" filter="url(#filter0_f)">
<rect width="182.575" height="288.075" rx="91.2874" transform="matrix(-0.725476 -0.688248 0.80695 -0.59062 239.145 408.743)" fill="url(#paint0_linear)"/>
</g>
</g>
<defs>
<filter id="filter0_f" x="20.7943" y="20.1665" width="536.709" height="481.354" filterUnits="userSpaceOnUse" color-interpolation-filters="sRGB">
<feFlood flood-opacity="0" result="BackgroundImageFix"/>
<feBlend mode="normal" in="SourceGraphic" in2="BackgroundImageFix" result="shape"/>
<feGaussianBlur stdDeviation="63.3647" result="effect1_foregroundBlur"/>
</filter>
<linearGradient id="paint0_linear" x1="-16.0334" y1="-14.8771" x2="61.793" y2="263.922" gradientUnits="userSpaceOnUse">
<stop stop-color="#008FDF"/>
<stop offset="1" stop-color="#00E3BA"/>
</linearGradient>
<clipPath id="clip0">
<rect width="318" height="259" fill="white"/>
</clipPath>
</defs>
</svg>
