<svg width="324" height="261" viewBox="0 0 324 261" fill="none" xmlns="http://www.w3.org/2000/svg">
<g clip-path="url(#clip0)">
<rect width="324" height="261" fill="url(#paint0_linear)"/>
<g style="mix-blend-mode:lighten" opacity="0.8" filter="url(#filter0_f)">
<rect width="214.891" height="357.085" rx="107.445" transform="matrix(0.612975 -0.790102 0.881009 0.4731 -190.286 287.071)" fill="url(#paint1_linear)"/>
</g>
<g style="mix-blend-mode:overlay" clip-path="url(#clip1)">
<path opacity="0.39" d="M305.98 33.004V11.1304L325.197 0L344.414 11.1304V33.004L325.197 44.1343L305.98 33.004ZM171.452 198.04V176.163L190.672 165.033L209.89 176.163V198.04L190.672 209.17L171.452 198.04ZM133.004 330.066V308.189L152.221 297.058L171.439 308.189V330.066L152.221 341.196L133.004 330.066ZM190.672 297.058V275.178L209.89 264.048L229.107 275.178V297.055L209.89 308.185L190.672 297.058ZM17.7127 264.051V242.178L36.9301 231.047L56.1604 242.178V264.051L36.9268 275.178L17.7127 264.051ZM133.02 264.051V242.178L152.237 231.047L171.455 242.178V264.051L152.234 275.178L133.02 264.051ZM267.542 165.033L248.324 176.163L229.107 165.033V143.156L248.324 132.026V110.149L267.542 99.028L286.759 110.158V132.035L267.542 143.166V165.033ZM229.094 77.1415V99.028L209.877 110.158L190.672 99.028V77.1415L171.452 66.0112V44.1343L190.672 33.004L209.89 44.1343V66.0112L229.094 77.1415Z" fill="url(#paint2_linear)"/>
<path opacity="0.21" d="M420.35 82.4808L440.551 94.174V117.157L420.346 128.853L400.149 117.157V94.174L420.35 82.4808ZM440.551 -21.5544L460.752 -9.86125V13.1251L440.551 24.8182L420.35 13.1251V-9.86125L440.551 -21.5544ZM299.137 13.1251L319.345 24.8182V47.8013L299.137 59.4945L278.943 47.8013V24.8182L299.137 13.1251ZM-104.905 -56.2274L-84.7037 -44.5311V-21.548L-104.905 -9.8548L-125.106 -21.548V-44.5311L-104.905 -56.2274ZM16.3011 -79.2106L36.5053 -90.9037L56.7063 -79.2106V-56.2274L36.5053 -44.5311L16.3076 -56.2339L-3.89339 -44.5375L-24.0976 -56.2339V-79.217L-3.89339 -90.9102L16.3011 -79.2106ZM-64.5028 13.1315V-9.8548L-44.3018 -21.548L-24.1008 -9.8548V13.1315L-44.3018 24.8247V47.8013L-64.5028 59.4945L-84.707 47.8013V24.8182L-64.5028 13.1315ZM117.335 47.8013V24.8182L137.536 13.1251L157.737 24.8182V47.8013L137.52 59.4945V82.4808L117.335 94.174L97.1341 82.4808V59.4945L117.335 47.8013ZM56.7128 13.1251V-9.86125L76.9137 -21.5544L97.1179 -9.86125V13.1251L76.9137 24.8182V47.8013L56.7128 59.4945L36.5118 47.8013L16.3076 59.4945V82.4808L-3.89339 94.174V117.157L-24.0976 128.853V151.837L-44.2986 163.53L-64.4995 151.837V128.853L-44.2986 117.157V94.174L-24.0976 82.4808V59.4945L-3.89339 47.8013V24.8182L16.3076 13.1251L36.5118 24.8182L56.7128 13.1251ZM359.747 -44.5375L339.546 -56.2339L319.345 -44.5375L299.141 -56.2339V-79.217L319.345 -90.9102L339.546 -79.217L359.747 -90.9102L379.951 -79.217V-56.2339L400.152 -44.5375V-21.5544L379.951 -9.86125L359.747 -21.5544V-44.5375ZM36.5312 163.52L56.7321 151.827L76.9331 163.52L97.1373 151.827L117.335 163.53V186.516L97.1341 198.209V221.192L76.9137 232.889L56.7128 221.192V198.209L36.5118 186.516L16.3076 198.209L-3.89339 186.516V163.53L16.3076 151.837L36.5312 163.52ZM-3.87077 325.218V302.244L16.3302 290.551V267.565L36.5344 255.872L56.7354 267.565V290.551L36.5344 302.244V325.228L16.3076 336.921V359.907L-3.89339 371.6L-24.0976 359.907V336.921L-3.87077 325.218ZM-104.905 267.565L-125.106 255.872V232.889L-104.905 221.192V198.209L-84.7037 186.516L-64.4995 198.209L-44.2986 186.516L-24.0976 198.209V221.192L-44.2986 232.889V255.872L-24.0976 267.565V290.551L-44.2986 302.244V325.228L-64.4995 336.921L-84.7037 325.228V302.244L-104.905 290.551V267.565ZM258.732 151.837L278.943 163.53V186.516L258.739 198.209L238.541 186.516L218.34 198.209V221.192L238.541 232.889V255.872L218.34 267.565V290.551L198.139 302.244V325.228L177.938 336.921L157.737 325.228V302.244L177.938 290.551V267.565L198.139 255.872V232.889L177.938 221.192V198.209L198.139 186.516V163.53L177.938 151.837V128.853L157.737 117.157V94.174L177.938 82.4808L198.139 94.174V117.157L218.343 128.853L238.541 117.157L258.742 128.853L258.732 151.837ZM339.536 82.4841V59.4945L359.747 47.8013L379.951 59.4945V82.4808L359.747 94.174V117.157L379.951 128.853V151.837L359.747 163.53V186.516L339.546 198.209L319.345 186.516V163.53L339.546 151.837V128.853L319.345 117.157V94.174L339.536 82.4841ZM359.747 302.244V325.228L339.546 336.921L319.345 325.228V302.244L299.141 290.551V267.565L319.345 255.872L339.546 267.565L359.747 255.872L379.951 267.565L400.152 255.872V232.889L379.951 221.192V198.209L400.152 186.516V163.53L420.353 151.837L440.551 163.53L460.752 151.837L480.953 163.53L501.157 151.837L521.358 163.53V186.516L501.157 198.209L480.953 186.516L460.752 198.209L440.551 186.516L420.346 198.209V221.192L440.551 232.889V255.872L420.35 267.565V290.551L400.149 302.244L379.948 290.551L359.747 302.244ZM218.33 -79.217L238.541 -90.9102L258.742 -79.217V-56.2339L238.541 -44.5375L218.34 -56.2339L198.139 -44.5375V-21.5544L218.343 -9.86125L238.541 -21.5544L258.742 -9.86125V13.1251L238.541 24.8182L218.34 13.1251L198.139 24.8182L177.938 13.1251V-9.86125L157.737 -21.5544L137.533 -9.86125L117.335 -21.5544V-44.5375L137.536 -56.2339V-79.217L157.737 -90.9102L177.938 -79.217L198.139 -90.9102L218.33 -79.217Z" fill="url(#paint3_radial)"/>
<path opacity="0.11" d="M299.885 213.526L314.901 222.231V239.318L299.885 248.023L284.869 239.318V222.231L299.885 213.526ZM344.936 187.757L359.952 196.462V213.549L344.936 222.254L329.917 213.549V196.462L344.936 187.757ZM-0.753717 264.769L14.2622 273.473V290.561L-0.753717 299.22L-15.7729 290.515V273.428L-0.753717 264.769ZM149.709 161.984L164.725 170.689V187.776L149.709 196.481L134.69 187.776V170.689L149.709 161.984ZM-45.5042 -18.4076L-30.4883 -9.7189V7.36826L-45.5042 16.073L-60.5201 7.36826V-9.7189L-45.5042 -18.4076ZM-60.5201 58.9038L-45.5042 67.6086V84.6957L-60.5201 93.4005L-75.5393 84.6957V67.6086L-60.5201 58.9038ZM74.6297 33.1344L59.6137 41.8392L44.5978 33.1344V16.0472L59.6137 7.34247V-9.74469L74.6297 -18.4333L89.6488 -9.74469V7.34247L104.665 16.0472V33.1344L119.681 41.8392V58.9263L104.665 67.6311L89.6488 58.9038V41.8166L74.6297 33.1344ZM-0.453207 41.8392L-15.4724 33.1344V16.0472L-0.453207 7.34247L14.5627 16.0472V33.1344L29.5786 41.8392V58.9263L14.5627 67.6311L-0.453207 58.9038V41.8392ZM194.767 84.6731L179.748 93.3779V110.465L194.767 119.17L209.783 110.465V93.3779L194.767 84.6731ZM269.85 58.9038L284.869 67.6086L299.885 58.9199L314.901 67.6247L329.917 58.936L344.936 67.6408V84.7279L359.952 93.4327L374.968 84.7279V67.6408L359.952 58.9038V41.8166L374.968 33.128L389.987 41.8327V58.9199L405.003 67.6247V84.7118L389.987 93.4166V110.504L374.968 119.209V136.296L359.952 145L344.936 136.296V119.209L329.917 110.504L314.901 119.209L299.885 110.504V93.4166L284.869 84.7118L269.85 93.4166V110.504L254.834 119.209L239.818 110.504L224.799 119.209V136.296L239.818 145V162.088L254.834 170.792V187.88L239.818 196.584V213.672L224.799 222.376V239.463L209.783 248.168L194.767 239.463V222.376L179.761 213.526V196.439L194.78 187.735L209.796 196.439L224.812 187.735V170.647L209.796 161.943V144.855L194.78 136.151L179.761 144.855L164.745 136.151V119.063L149.729 110.359V93.2715L134.71 84.5667V67.4796L149.709 58.9038L164.725 67.6086L179.761 58.9038L194.78 67.6086L209.783 58.9038V41.8166L224.799 33.1344V16.0472L209.783 7.34247V-9.74469L224.799 -18.4333L239.818 -9.74469V7.34247L254.834 16.0472L269.85 7.34247L284.869 16.0472V33.1344L269.85 41.8392V58.9038ZM254.834 67.6086L239.818 58.9038L224.799 67.6086V84.6957L239.818 93.4005L254.834 84.6957V67.6086ZM29.5786 213.526L44.5978 222.231V239.318L29.5786 248.023L14.5627 239.318V222.231L-0.453207 213.526V196.439L-15.4724 187.735L-30.4883 196.439L-45.5042 187.735V170.647L-60.5201 161.943V144.855L-75.5393 136.151V119.063L-60.5201 110.359L-45.5042 119.063L-30.4883 110.359V93.2715L-15.4724 84.5667L-0.453207 93.2715V110.359L-15.4724 119.063V136.151L-30.4883 144.855V161.943L-15.4724 170.647L-0.453207 161.943V144.855L14.5627 136.151V119.063L29.5786 110.359L44.5978 119.063L59.6137 110.359V93.2715L74.6297 84.5667L89.6488 93.2715V110.359L104.665 119.063L119.681 110.359L134.697 119.063V136.151L119.681 144.855V161.943L104.665 170.647L89.6488 161.943V144.855L74.6297 136.151L59.6137 144.855V161.943L44.5978 170.647L29.5786 161.943L14.5627 170.647V187.735L29.5786 196.439V213.526ZM314.904 170.676V187.764L299.888 196.468L284.872 187.764V170.676L299.888 161.972V144.884L314.904 136.18L329.92 144.884V161.972L314.904 170.676ZM359.955 265.068L344.936 273.751V290.838L329.917 299.543L314.901 290.838V273.751L329.917 265.062V247.975L344.936 239.27L359.952 247.975L374.968 239.27L389.987 247.975V265.062L374.968 273.751L359.955 265.068ZM119.684 247.981L104.668 239.276V222.189L89.6521 213.485V196.397L104.668 187.693L119.684 196.397V213.485L134.7 222.189V239.276L149.719 247.981V265.068L134.697 273.751L119.681 265.062L119.684 247.981Z" fill="url(#paint4_linear)"/>
<path d="M199.832 257.88L214.866 266.596V283.705L199.832 292.42L184.801 283.705V266.596L199.832 257.88ZM94.6109 128.864L109.645 137.579V154.688L94.6109 163.388L79.5803 154.688V137.579L94.6109 128.864ZM64.5561 25.6523L79.5803 34.3455V51.4543L64.5561 60.1701L49.5157 51.4543V34.3455L64.5561 25.6523ZM109.645 51.4543L124.676 60.1701V77.2789L109.645 85.9592L94.6109 77.2595V60.1701L109.645 51.4543ZM-25.6409 77.2595L-10.6102 85.9592V103.068L-25.6409 111.761L-40.6748 103.062V85.9527L-25.6409 77.2595ZM64.5496 77.2595L79.5803 85.9592V103.068L64.5561 111.761L49.5157 103.062V85.9527L64.5496 77.2595ZM350.155 -0.149754V-17.2586L365.189 -25.9744L380.22 -17.2586V-0.149754L365.189 8.56605V25.6749L350.161 34.3455V51.4543L335.131 60.1701L320.081 51.4543L305.05 60.1701L290.023 51.4543V34.3455L305.056 25.6458L320.081 34.3455L335.111 25.6458V8.537L350.155 -0.149754ZM154.737 180.471L169.771 189.187V206.295L154.737 215.011L139.706 206.295V189.187L124.676 180.471V163.362L139.706 154.662L154.737 163.362V180.471ZM109.645 240.778V257.887L94.6109 266.602L79.5803 257.887V240.778L94.6109 232.062V214.953L109.645 206.237L124.676 214.953V232.062L109.645 240.778Z" fill="url(#paint5_linear)"/>
</g>
</g>
<defs>
<filter id="filter0_f" x="-298.047" y="1.09241" width="661.841" height="571.108" filterUnits="userSpaceOnUse" color-interpolation-filters="sRGB">
<feFlood flood-opacity="0" result="BackgroundImageFix"/>
<feBlend mode="normal" in="SourceGraphic" in2="BackgroundImageFix" result="shape"/>
<feGaussianBlur stdDeviation="76.4774" result="effect1_foregroundBlur"/>
</filter>
<linearGradient id="paint0_linear" x1="162" y1="0" x2="162" y2="261" gradientUnits="userSpaceOnUse">
<stop stop-color="#4F4F4F"/>
<stop offset="1" stop-color="#4F4F4F" stop-opacity="0"/>
</linearGradient>
<linearGradient id="paint1_linear" x1="122.204" y1="0.221501" x2="89.5346" y2="360.342" gradientUnits="userSpaceOnUse">
<stop stop-color="#4C66F1"/>
<stop offset="1" stop-color="#D129C3"/>
</linearGradient>
<linearGradient id="paint2_linear" x1="389.881" y1="285.089" x2="77.6662" y2="9.4419" gradientUnits="userSpaceOnUse">
<stop stop-color="white"/>
<stop offset="1" stop-color="white" stop-opacity="0"/>
</linearGradient>
<radialGradient id="paint3_radial" cx="0" cy="0" r="1" gradientUnits="userSpaceOnUse" gradientTransform="translate(179.738 105.174) rotate(1.4019) scale(264.619 207.785)">
<stop stop-opacity="0"/>
<stop offset="1"/>
</radialGradient>
<linearGradient id="paint4_linear" x1="-68.5338" y1="182.512" x2="467.888" y2="75.2433" gradientUnits="userSpaceOnUse">
<stop stop-color="white" stop-opacity="0"/>
<stop offset="0.29" stop-color="white" stop-opacity="0.28"/>
<stop offset="0.96" stop-color="white" stop-opacity="0.96"/>
<stop offset="1" stop-color="white"/>
</linearGradient>
<linearGradient id="paint5_linear" x1="-14073.3" y1="98447.2" x2="533615" y2="98447.2" gradientUnits="userSpaceOnUse">
<stop stop-color="white" stop-opacity="0.06"/>
<stop offset="1" stop-color="white" stop-opacity="0.93"/>
</linearGradient>
<clipPath id="clip0">
<rect width="324" height="261" fill="white"/>
</clipPath>
<clipPath id="clip1">
<rect width="465" height="261" fill="white" transform="translate(-81)"/>
</clipPath>
</defs>
</svg>
