<svg width="333" height="261" viewBox="0 0 333 261" fill="none" xmlns="http://www.w3.org/2000/svg">
<g clip-path="url(#clip0)">
<path opacity="0.1" d="M357.356 91.4096L332.915 105.521L332.915 77.2986L357.356 91.4096Z" fill="black"/>
<path opacity="0.1" d="M357.356 63.3228L332.915 77.4339L332.915 49.2118L357.356 63.3228Z" fill="black"/>
<path opacity="0.1" d="M357.356 147.584L332.915 161.695L332.915 133.473L357.356 147.584Z" fill="black"/>
<path opacity="0.1" d="M357.356 119.497L332.915 133.608L332.915 105.386L357.356 119.497Z" fill="black"/>
<path opacity="0.1" d="M357.356 203.758L332.915 217.869L332.915 189.647L357.356 203.758Z" fill="black"/>
<path opacity="0.1" d="M357.356 175.671L332.915 189.782L332.915 161.56L357.356 175.671Z" fill="black"/>
<path opacity="0.1" d="M357.356 259.932L332.915 274.043L332.915 245.821L357.356 259.932Z" fill="black"/>
<path opacity="0.1" d="M357.356 231.845L332.915 245.956L332.915 217.734L357.356 231.845Z" fill="black"/>
<path opacity="0.1" d="M332.959 105.453L308.518 119.564L308.518 91.3424L332.959 105.453Z" fill="black"/>
<path opacity="0.3" d="M332.959 77.3659L308.518 91.477L308.518 63.2549L332.959 77.3659Z" fill="black"/>
<path opacity="0.1" d="M308.734 119.497L284.293 133.608L284.293 105.386L308.734 119.497Z" fill="black"/>
<path opacity="0.1" d="M308.734 91.4096L284.292 105.521L284.292 77.2986L308.734 91.4096Z" fill="black"/>
<path opacity="0.1" d="M332.959 49.2791L308.518 63.3902L308.518 35.1681L332.959 49.2791Z" fill="white"/>
<path opacity="0.1" d="M357.356 35.236L332.915 49.3471L332.915 21.125L357.356 35.236Z" fill="black"/>
<path opacity="0.1" d="M332.959 21.1926L308.518 35.3036L308.518 7.08154L332.959 21.1926Z" fill="black"/>
<path opacity="0.1" d="M357.356 7.14889L332.915 21.2599L332.915 -6.96216L357.356 7.14889Z" fill="black"/>
<path opacity="0.1" d="M332.959 -6.89445L308.518 7.2166L308.518 -21.0055L332.959 -6.89445Z" fill="black"/>
<path opacity="0.1" d="M308.734 63.3228L284.293 77.4339L284.293 49.2118L308.734 63.3228Z" fill="black"/>
<path opacity="0.1" d="M308.734 35.2358L284.293 49.3468L284.293 21.1248L308.734 35.2358Z" fill="black"/>
<path opacity="0.1" d="M332.959 217.801L308.518 231.912L308.518 203.69L332.959 217.801Z" fill="black"/>
<path opacity="0.3" d="M332.959 189.714L308.518 203.825L308.518 175.603L332.959 189.714Z" fill="black"/>
<path opacity="0.1" d="M308.734 231.845L284.293 245.956L284.293 217.734L308.734 231.845Z" fill="black"/>
<path opacity="0.1" d="M308.734 203.758L284.292 217.869L284.292 189.647L308.734 203.758Z" fill="black"/>
<path opacity="0.1" d="M332.959 161.627L308.518 175.738L308.518 147.516L332.959 161.627Z" fill="black"/>
<path opacity="0.1" d="M332.959 133.54L308.518 147.651L308.518 119.429L332.959 133.54Z" fill="black"/>
<path opacity="0.1" d="M308.734 175.671L284.292 189.782L284.292 161.56L308.734 175.671Z" fill="black"/>
<path opacity="0.1" d="M308.734 147.584L284.293 161.695L284.293 133.473L308.734 147.584Z" fill="black"/>
<path opacity="0.1" d="M332.959 273.975L308.518 288.086L308.518 259.864L332.959 273.975Z" fill="black"/>
<path opacity="0.1" d="M332.959 245.888L308.518 259.999L308.518 231.777L332.959 245.888Z" fill="black"/>
<path opacity="0.1" d="M308.734 259.932L284.292 274.043L284.292 245.821L308.734 259.932Z" fill="black"/>
<path opacity="0.3" d="M284.158 133.54L259.717 147.651L259.717 119.429L284.158 133.54Z" fill="black"/>
<path opacity="0.1" d="M284.158 105.453L259.717 119.564L259.717 91.3424L284.158 105.453Z" fill="black"/>
<path opacity="0.1" d="M259.932 147.584L235.491 161.695L235.491 133.473L259.932 147.584Z" fill="black"/>
<path opacity="0.1" d="M259.933 119.497L235.492 133.608L235.492 105.386L259.933 119.497Z" fill="black"/>
<path opacity="0.1" d="M284.157 77.3663L259.716 91.4773L259.716 63.2553L284.157 77.3663Z" fill="black"/>
<path opacity="0.1" d="M284.158 49.2789L259.717 63.3899L259.717 35.1678L284.158 49.2789Z" fill="black"/>
<path opacity="0.1" d="M259.933 91.4096L235.492 105.521L235.492 77.2986L259.933 91.4096Z" fill="black"/>
<path opacity="0.1" d="M259.933 63.3227L235.492 77.4338L235.492 49.2117L259.933 63.3227Z" fill="black"/>
<path opacity="0.1" d="M235.356 161.627L210.915 175.738L210.915 147.516L235.356 161.627Z" fill="black"/>
<path opacity="0.1" d="M211.131 175.671L186.69 189.782L186.69 161.56L211.131 175.671Z" fill="black"/>
<path opacity="0.3" d="M211.132 147.584L186.69 161.695L186.69 133.473L211.132 147.584Z" fill="black"/>
<path opacity="0.1" d="M235.356 105.453L210.915 119.564L210.915 91.3424L235.356 105.453Z" fill="black"/>
<path opacity="0.1" d="M211.132 119.497L186.69 133.608L186.69 105.386L211.132 119.497Z" fill="black"/>
<path opacity="0.1" d="M211.131 91.4099L186.69 105.521L186.69 77.2988L211.131 91.4099Z" fill="black"/>
<path opacity="0.1" d="M284.158 21.1922L259.717 35.3033L259.717 7.08118L284.158 21.1922Z" fill="black"/>
<path opacity="0.1" d="M308.734 7.14865L284.292 21.2597L284.292 -6.9624L308.734 7.14865Z" fill="black"/>
<path opacity="0.1" d="M284.157 -6.89469L259.716 7.21635L259.716 -21.0057L284.157 -6.89469Z" fill="black"/>
<path opacity="0.1" d="M284.157 273.975L259.716 288.086L259.716 259.864L284.157 273.975Z" fill="black"/>
<path opacity="0.1" d="M284.158 245.888L259.717 259.999L259.717 231.777L284.158 245.888Z" fill="black"/>
<path opacity="0.3" d="M284.158 217.801L259.717 231.912L259.717 203.69L284.158 217.801Z" fill="black"/>
<path opacity="0.1" d="M284.157 189.714L259.716 203.825L259.716 175.603L284.157 189.714Z" fill="black"/>
<path opacity="0.2" d="M284.158 161.628L259.716 175.739L259.716 147.516L284.158 161.628Z" fill="black" fill-opacity="0.52"/>
<path opacity="0.3" d="M259.933 35.2356L235.492 49.3466L235.492 21.1245L259.933 35.2356Z" fill="black"/>
<path opacity="0.1" d="M259.933 7.14865L235.492 21.2597L235.492 -6.9624L259.933 7.14865Z" fill="black"/>
<path opacity="0.1" d="M259.933 259.932L235.492 274.043L235.492 245.821L259.933 259.932Z" fill="black"/>
<path opacity="0.1" d="M259.933 231.845L235.492 245.956L235.492 217.734L259.933 231.845Z" fill="black"/>
<path opacity="0.1" d="M259.933 203.758L235.492 217.869L235.492 189.647L259.933 203.758Z" fill="black"/>
<path opacity="0.1" d="M259.933 175.671L235.492 189.782L235.492 161.56L259.933 175.671Z" fill="white"/>
<path opacity="0.1" d="M235.356 49.2791L210.915 63.3902L210.915 35.1681L235.356 49.2791Z" fill="black"/>
<path opacity="0.2" d="M235.356 77.3663L210.915 91.4773L210.915 63.2553L235.356 77.3663Z" fill="black" fill-opacity="0.52"/>
<path opacity="0.1" d="M235.356 133.54L210.915 147.651L210.915 119.429L235.356 133.54Z" fill="black"/>
<path opacity="0.1" d="M235.356 21.1923L210.915 35.3034L210.915 7.0813L235.356 21.1923Z" fill="black"/>
<path opacity="0.1" d="M211.131 63.3227L186.69 77.4338L186.69 49.2117L211.131 63.3227Z" fill="black"/>
<path opacity="0.1" d="M211.131 35.2356L186.69 49.3466L186.69 21.1245L211.131 35.2356Z" fill="black"/>
<path opacity="0.1" d="M211.131 259.932L186.69 274.043L186.69 245.821L211.131 259.932Z" fill="black"/>
<path opacity="0.1" d="M211.131 231.845L186.69 245.956L186.69 217.734L211.131 231.845Z" fill="black"/>
<path opacity="0.1" d="M211.131 203.758L186.69 217.869L186.69 189.647L211.131 203.758Z" fill="black"/>
<path opacity="0.1" d="M235.356 -6.89469L210.915 7.21635L210.915 -21.0057L235.356 -6.89469Z" fill="black"/>
<path opacity="0.3" d="M235.356 245.888L210.915 259.999L210.915 231.777L235.356 245.888Z" fill="black"/>
<path opacity="0.1" d="M235.356 273.975L210.915 288.086L210.915 259.864L235.356 273.975Z" fill="black"/>
<path opacity="0.1" d="M235.356 217.801L210.915 231.912L210.915 203.689L235.356 217.801Z" fill="black"/>
<path opacity="0.1" d="M235.356 189.714L210.915 203.825L210.915 175.603L235.356 189.714Z" fill="black"/>
<path opacity="0.3" d="M186.555 77.3663L162.114 91.4773L162.114 63.2553L186.555 77.3663Z" fill="black"/>
<path opacity="0.1" d="M162.33 91.4101L137.889 105.521L137.889 77.2991L162.33 91.4101Z" fill="black"/>
<path opacity="0.1" d="M162.33 63.323L137.889 77.434L137.889 49.2119L162.33 63.323Z" fill="black"/>
<path opacity="0.1" d="M186.555 133.54L162.114 147.651L162.114 119.429L186.555 133.54Z" fill="black"/>
<path opacity="0.1" d="M162.33 147.584L137.889 161.695L137.889 133.473L162.33 147.584Z" fill="black"/>
<path opacity="0.1" d="M162.33 119.497L137.889 133.608L137.889 105.386L162.33 119.497Z" fill="black"/>
<path opacity="0.3" d="M186.555 189.714L162.114 203.825L162.114 175.603L186.555 189.714Z" fill="black"/>
<path opacity="0.1" d="M162.33 203.758L137.889 217.869L137.889 189.647L162.33 203.758Z" fill="black"/>
<path opacity="0.2" d="M162.33 175.671L137.889 189.782L137.889 161.56L162.33 175.671Z" fill="black" fill-opacity="0.52"/>
<path opacity="0.1" d="M186.555 245.888L162.114 259.999L162.114 231.777L186.555 245.888Z" fill="black"/>
<path opacity="0.1" d="M186.555 105.454L162.114 119.565L162.114 91.3425L186.555 105.454Z" fill="black"/>
<path opacity="0.1" d="M186.555 161.627L162.114 175.738L162.114 147.516L186.555 161.627Z" fill="black"/>
<path opacity="0.1" d="M186.555 217.801L162.114 231.912L162.114 203.69L186.555 217.801Z" fill="black"/>
<path opacity="0.1" d="M186.555 273.975L162.114 288.086L162.114 259.864L186.555 273.975Z" fill="black"/>
<path opacity="0.1" d="M162.33 259.932L137.889 274.043L137.889 245.821L162.33 259.932Z" fill="black"/>
<path opacity="0.1" d="M162.33 231.845L137.889 245.956L137.889 217.734L162.33 231.845Z" fill="black"/>
<path opacity="0.1" d="M137.754 105.453L113.313 119.564L113.313 91.3424L137.754 105.453Z" fill="black"/>
<path opacity="0.3" d="M137.754 77.3663L113.313 91.4773L113.313 63.2553L137.754 77.3663Z" fill="black"/>
<path opacity="0.1" d="M113.529 119.497L89.0882 133.608L89.0882 105.386L113.529 119.497Z" fill="black"/>
<path opacity="0.1" d="M113.529 91.4099L89.0881 105.521L89.0881 77.2988L113.529 91.4099Z" fill="black"/>
<path opacity="0.1" d="M137.754 49.2794L113.313 63.3904L113.313 35.1683L137.754 49.2794Z" fill="black"/>
<path opacity="0.1" d="M113.529 63.323L89.0881 77.434L89.0881 49.2119L113.529 63.323Z" fill="black"/>
<path opacity="0.1" d="M113.529 35.2359L89.0881 49.347L89.0881 21.1249L113.529 35.2359Z" fill="black"/>
<path opacity="0.1" d="M137.754 217.801L113.313 231.912L113.313 203.69L137.754 217.801Z" fill="black"/>
<path opacity="0.1" d="M137.754 189.714L113.313 203.825L113.313 175.603L137.754 189.714Z" fill="black"/>
<path opacity="0.1" d="M113.529 231.845L89.0882 245.956L89.0882 217.734L113.529 231.845Z" fill="black"/>
<path opacity="0.1" d="M113.529 203.758L89.0882 217.869L89.0882 189.647L113.529 203.758Z" fill="black"/>
<path opacity="0.1" d="M137.754 161.627L113.313 175.738L113.313 147.516L137.754 161.627Z" fill="black"/>
<path opacity="0.1" d="M137.754 133.54L113.313 147.651L113.313 119.429L137.754 133.54Z" fill="black"/>
<path opacity="0.1" d="M186.555 -6.89493L162.114 7.21611L162.114 -21.006L186.555 -6.89493Z" fill="black"/>
<path opacity="0.1" d="M162.33 7.14889L137.889 21.2599L137.889 -6.96216L162.33 7.14889Z" fill="black"/>
<path opacity="0.1" d="M186.555 49.2791L162.114 63.3902L162.114 35.1681L186.555 49.2791Z" fill="black"/>
<path opacity="0.1" d="M162.33 35.2356L137.889 49.3466L137.889 21.1245L162.33 35.2356Z" fill="black"/>
<path opacity="0.1" d="M186.555 21.1923L162.114 35.3034L162.114 7.0813L186.555 21.1923Z" fill="black"/>
<path opacity="0.1" d="M137.754 21.1923L113.313 35.3034L113.313 7.0813L137.754 21.1923Z" fill="black"/>
<path opacity="0.1" d="M137.754 -6.89518L113.313 7.21587L113.313 -21.0062L137.754 -6.89518Z" fill="black"/>
<path opacity="0.1" d="M113.529 175.671L89.0882 189.782L89.0882 161.56L113.529 175.671Z" fill="black"/>
<path opacity="0.1" d="M113.529 147.584L89.0882 161.695L89.0882 133.473L113.529 147.584Z" fill="black"/>
<path opacity="0.1" d="M137.754 273.975L113.313 288.086L113.313 259.864L137.754 273.975Z" fill="black"/>
<path opacity="0.3" d="M137.754 245.888L113.313 259.999L113.313 231.777L137.754 245.888Z" fill="black"/>
<path opacity="0.1" d="M113.529 259.932L89.0882 274.043L89.0882 245.821L113.529 259.932Z" fill="black"/>
<path opacity="0.1" d="M88.9533 133.54L64.5123 147.651L64.5123 119.429L88.9533 133.54Z" fill="black"/>
<path opacity="0.1" d="M88.9532 105.453L64.5121 119.564L64.5121 91.3424L88.9532 105.453Z" fill="black"/>
<path opacity="0.1" d="M64.7281 147.584L40.287 161.695L40.287 133.473L64.7281 147.584Z" fill="black"/>
<path opacity="0.3" d="M64.7281 119.497L40.287 133.608L40.287 105.386L64.7281 119.497Z" fill="black"/>
<path opacity="0.1" d="M88.9532 77.3663L64.5121 91.4773L64.5121 63.2553L88.9532 77.3663Z" fill="black"/>
<path opacity="0.1" d="M88.9531 49.2793L64.5121 63.3903L64.5121 35.1682L88.9531 49.2793Z" fill="black"/>
<path opacity="0.1" d="M64.728 91.4096L40.2869 105.521L40.2869 77.2986L64.728 91.4096Z" fill="black"/>
<path opacity="0.1" d="M64.728 63.3227L40.2869 77.4338L40.2869 49.2117L64.728 63.3227Z" fill="white"/>
<path opacity="0.1" d="M40.3089 161.664L15.8678 175.775L15.8679 147.553L40.3089 161.664Z" fill="black"/>
<path opacity="0.1" d="M15.9173 175.707L-8.52375 189.818L-8.52375 161.596L15.9173 175.707Z" fill="black"/>
<path opacity="0.1" d="M15.9173 147.62L-8.52375 161.731L-8.52375 133.509L15.9173 147.62Z" fill="black"/>
<path opacity="0.1" d="M40.3089 105.49L15.8678 119.601L15.8679 91.3792L40.3089 105.49Z" fill="black"/>
<path opacity="0.1" d="M15.9172 119.534L-8.52381 133.645L-8.52381 105.423L15.9172 119.534Z" fill="black"/>
<path opacity="0.1" d="M15.9172 91.4465L-8.52387 105.558L-8.52387 77.3355L15.9172 91.4465Z" fill="black"/>
<path opacity="0.1" d="M88.9531 21.1923L64.5121 35.3034L64.5121 7.0813L88.9531 21.1923Z" fill="black"/>
<path opacity="0.1" d="M88.9532 273.975L64.5122 288.086L64.5122 259.864L88.9532 273.975Z" fill="black"/>
<path opacity="0.1" d="M88.9532 245.888L64.5122 259.999L64.5122 231.777L88.9532 245.888Z" fill="black"/>
<path opacity="0.1" d="M88.9532 217.801L64.5121 231.912L64.5121 203.69L88.9532 217.801Z" fill="black"/>
<path opacity="0.3" d="M88.9532 189.714L64.5121 203.825L64.5121 175.603L88.9532 189.714Z" fill="black"/>
<path opacity="0.1" d="M88.9532 161.627L64.5121 175.738L64.5121 147.516L88.9532 161.627Z" fill="black"/>
<path opacity="0.1" d="M64.728 35.2359L40.287 49.347L40.287 21.1249L64.728 35.2359Z" fill="black"/>
<path opacity="0.1" d="M64.7281 259.932L40.287 274.043L40.287 245.821L64.7281 259.932Z" fill="black"/>
<path opacity="0.3" d="M64.7281 231.845L40.287 245.956L40.287 217.734L64.7281 231.845Z" fill="black"/>
<path opacity="0.1" d="M64.7281 203.758L40.287 217.869L40.287 189.647L64.7281 203.758Z" fill="black"/>
<path opacity="0.1" d="M64.728 175.671L40.2869 189.782L40.2869 161.56L64.728 175.671Z" fill="black"/>
<path opacity="0.1" d="M40.309 49.3161L15.8679 63.4272L15.8679 35.2051L40.309 49.3161Z" fill="black"/>
<path opacity="0.4" d="M40.3089 77.4029L15.8678 91.514L15.8679 63.2919L40.3089 77.4029Z" fill="black" fill-opacity="0.52"/>
<path opacity="0.1" d="M40.309 133.577L15.8679 147.688L15.8679 119.466L40.309 133.577Z" fill="black"/>
<path opacity="0.1" d="M40.309 21.229L15.8679 35.34L15.8679 7.11792L40.309 21.229Z" fill="black"/>
<path opacity="0.1" d="M15.9172 63.3593L-8.52381 77.4704L-8.52381 49.2483L15.9172 63.3593Z" fill="black"/>
<path opacity="0.1" d="M15.9172 35.2725L-8.52381 49.3836L-8.52381 21.1615L15.9172 35.2725Z" fill="black"/>
<path opacity="0.1" d="M113.529 7.56002L89.0881 21.6711L89.0881 -6.55102L113.529 7.56002Z" fill="black"/>
<path opacity="0.1" d="M88.9531 -6.48331L64.5121 7.62773L64.5121 -20.5944L88.9531 -6.48331Z" fill="black"/>
<path opacity="0.3" d="M64.728 7.56014L40.2869 21.6712L40.2869 -6.5509L64.728 7.56014Z" fill="black"/>
<path opacity="0.1" d="M15.9172 7.59664L-8.52381 21.7077L-8.52381 -6.5144L15.9172 7.59664Z" fill="black"/>
<path opacity="0.1" d="M40.3089 -6.44681L15.8678 7.66423L15.8679 -20.5579L40.3089 -6.44681Z" fill="black"/>
<path opacity="0.1" d="M15.9173 259.968L-8.52375 274.079L-8.52375 245.857L15.9173 259.968Z" fill="black"/>
<path opacity="0.1" d="M15.9172 231.881L-8.52381 245.992L-8.52381 217.77L15.9172 231.881Z" fill="black"/>
<path opacity="0.1" d="M15.9173 203.794L-8.52375 217.905L-8.52375 189.683L15.9173 203.794Z" fill="black"/>
<path opacity="0.1" d="M40.309 245.925L15.868 260.036L15.868 231.814L40.309 245.925Z" fill="white"/>
<path opacity="0.1" d="M40.309 274.012L15.868 288.123L15.868 259.901L40.309 274.012Z" fill="black"/>
<path opacity="0.1" d="M40.309 217.837L15.8679 231.949L15.8679 203.726L40.309 217.837Z" fill="black"/>
<path opacity="0.1" d="M40.3089 189.751L15.8678 203.862L15.8679 175.64L40.3089 189.751Z" fill="black"/>
<path opacity="0.1" d="M211.131 7.14889L186.69 21.2599L186.69 -6.96216L211.131 7.14889Z" fill="white"/>
<g style="mix-blend-mode:lighten" opacity="0.8" filter="url(#filter0_f)">
<rect x="-167.028" y="225.731" width="215.456" height="332.136" rx="107.728" transform="rotate(-44.3512 -167.028 225.731)" fill="url(#paint0_linear)"/>
</g>
</g>
<defs>
<filter id="filter0_f" x="-305.027" y="-62.8835" width="662.245" height="664.114" filterUnits="userSpaceOnUse" color-interpolation-filters="sRGB">
<feFlood flood-opacity="0" result="BackgroundImageFix"/>
<feBlend mode="normal" in="SourceGraphic" in2="BackgroundImageFix" result="shape"/>
<feGaussianBlur stdDeviation="68.9995" result="effect1_foregroundBlur"/>
</filter>
<linearGradient id="paint0_linear" x1="-117.644" y1="243.727" x2="-126.323" y2="548.743" gradientUnits="userSpaceOnUse">
<stop stop-color="#4CC0F1"/>
<stop offset="1" stop-color="#6929D1"/>
</linearGradient>
<clipPath id="clip0">
<rect width="333" height="261" fill="white"/>
</clipPath>
</defs>
</svg>
