<svg width="28" height="28" viewBox="0 0 28 28" fill="none" xmlns="http://www.w3.org/2000/svg">
<path d="M13.82 10.4582C13.8208 10.5305 13.8183 10.5958 13.82 10.643C13.8283 10.873 13.8771 11.0491 13.9065 11.2611C13.9597 11.7147 14.0043 12.0908 13.9768 12.4403C13.95 12.5721 13.8555 12.6927 13.7713 12.7765L13.7565 13.0515C13.3769 13.0838 12.9949 13.143 12.6132 13.2321C10.9711 13.6153 9.5572 14.4847 8.48076 15.6586C8.41092 15.6096 8.28872 15.5195 8.25238 15.4919C8.13946 15.5076 8.02534 15.5434 7.8767 15.4544C7.59368 15.2586 7.3359 14.9883 7.02399 14.6627C6.88107 14.507 6.77758 14.3586 6.60777 14.2085C6.56921 14.1744 6.51036 14.1283 6.46723 14.0932C6.33448 13.9844 6.1779 13.9277 6.02669 13.9224C5.83227 13.9155 5.64511 13.9937 5.52263 14.1516C5.30489 14.4323 5.3746 14.8613 5.67804 15.11C5.72919 15.1517 5.78025 15.1962 5.81858 15.2253C5.99877 15.362 6.16337 15.432 6.34291 15.5406C6.72116 15.7807 7.03473 15.9797 7.28345 16.2198C7.38058 16.3262 7.39756 16.5137 7.41048 16.5948L7.61319 16.7809C6.52806 18.4594 6.02585 20.5327 6.32264 22.6453L6.05777 22.7244C5.98796 22.8171 5.88932 22.9629 5.78614 23.0064C5.67358 23.0428 5.02911 22.7947 5.02621 22.9488C5.02074 23.24 5.77745 23.9921 5.99831 23.9592C6.13933 23.9479 6.28792 24.0487 6.36183 24.0912L6.6375 24.0426C6.95393 25.0509 10.7051 26.4809 14.4524 26.4722C18.218 26.4634 21.9798 25.0112 22.2836 24.0301C22.3654 24.0433 22.5076 24.0692 22.5538 24.0787C22.649 24.0142 22.7364 23.9301 22.9079 23.944C23.2456 23.9942 23.7824 23.1322 23.5762 23.0979C23.4142 23.0709 23.2632 23.0374 23.1201 22.9911C22.9874 22.9382 22.893 22.7759 22.8471 22.7092L22.5917 22.6328C22.7241 21.648 22.6884 20.6232 22.4592 19.5978C22.228 18.5629 21.8192 17.6163 21.2741 16.7823C21.3396 16.7211 21.4633 16.6085 21.4984 16.5754C21.5087 16.4587 21.4999 16.3364 21.6173 16.2073C21.8661 15.9672 22.1797 15.7682 22.5579 15.5281C22.7374 15.4195 22.9034 15.3495 23.0836 15.2128C23.1243 15.1818 23.18 15.1329 23.2228 15.0975C23.5261 14.8487 23.596 14.4197 23.3782 14.1391C23.1604 13.8584 22.7383 13.832 22.4349 14.0807C22.3917 14.1159 22.3331 14.1617 22.2944 14.196C22.1246 14.3462 22.0197 14.4945 21.8768 14.6502C21.5649 14.9758 21.3071 15.2475 21.0241 15.4433C20.9015 15.5167 20.7218 15.4913 20.6403 15.4864L20.3998 15.6628C19.0281 14.1844 17.1606 13.2393 15.1497 13.0557C15.1441 12.969 15.1367 12.8125 15.1349 12.7654C15.0525 12.6844 14.9531 12.6153 14.9281 12.4403C14.9006 12.0908 14.9465 11.7147 14.9997 11.2611C15.0291 11.0491 15.0779 10.873 15.0862 10.643C15.0881 10.5907 15.0851 10.5148 15.0849 10.4582C15.0848 10.0594 14.8017 9.73593 14.4524 9.73596C14.1032 9.736 13.82 10.0594 13.82 10.4582ZM13.6605 14.778L13.4727 18.188L13.4592 18.1949C13.4466 18.5 13.2023 18.7436 12.9024 18.7436C12.7796 18.7436 12.6662 18.703 12.574 18.6338L9.84834 16.6545C10.6844 15.8095 11.7538 15.1851 12.9862 14.8975C13.2113 14.8449 13.4364 14.8059 13.6605 14.778ZM15.2457 14.778C16.6845 14.9599 18.0152 15.6296 19.0349 16.6559L16.3322 18.6255C16.0828 18.8014 15.7448 18.7568 15.5578 18.5158C15.4812 18.4171 15.4411 18.301 15.4362 18.1838L15.2457 14.778ZM8.86185 17.9282L11.3457 20.2117L11.3429 20.2256C11.5671 20.426 11.6002 20.7736 11.4132 21.0146C11.3366 21.1133 11.2341 21.1795 11.124 21.2104L7.93752 22.166C7.77547 20.643 8.1247 19.1626 8.86185 17.9282ZM20.8403 19.9756C21.0047 20.7111 21.0459 21.4454 20.9782 22.1549L17.7781 21.2076L17.7754 21.1938C17.4889 21.1133 17.3128 20.8137 17.3795 20.5131C17.4068 20.39 17.4704 20.2859 17.5565 20.209L20.0254 17.9296C20.3945 18.5444 20.674 19.2311 20.8403 19.9756ZM13.943 20.3881H14.9605L15.593 21.2007L15.366 22.2147L14.4524 22.6661L13.5362 22.2133L13.3092 21.1993L13.943 20.3881ZM17.3335 23.1786L20.6322 23.7439C20.5409 24.0077 20.3693 24.3866 20.1175 24.8807L17.4176 25.7131L16.7173 23.9745C16.6039 23.6885 16.7215 23.3596 16.9916 23.2258C17.0608 23.1916 17.1331 23.1726 17.2052 23.1689C17.2484 23.1667 17.2915 23.1707 17.3335 23.1786ZM12.2092 23.6287C12.2365 23.7518 12.2232 23.8737 12.1781 23.9815L12.1875 23.994L11.5391 25.6048L8.80104 24.8671C8.55492 24.3866 8.386 24.0159 8.29427 23.7551L11.5592 23.1856C11.6011 23.1856 11.6381 23.1823 11.674 23.1828C11.9254 23.1864 12.1508 23.3657 12.2092 23.6287ZM14.4322 24.5593C14.5197 24.556 14.6085 24.5744 14.693 24.6162C14.8037 24.671 14.8892 24.7573 14.943 24.8607L15.4894 25.8678L13.3446 26.0017L13.9578 24.8621C14.0569 24.677 14.2396 24.5666 14.4322 24.5593Z" fill="white"/>
<path fill-rule="evenodd" clip-rule="evenodd" d="M14.4762 27.5024C21.932 27.5024 27.9762 21.4583 27.9762 14.0024C27.9762 6.5466 21.932 0.502441 14.4762 0.502441C7.02035 0.502441 0.976196 6.5466 0.976196 14.0024C0.976196 21.4583 7.02035 27.5024 14.4762 27.5024ZM14.4762 26.1524C21.1865 26.1524 26.6262 20.7127 26.6262 14.0024C26.6262 7.29213 21.1865 1.85239 14.4762 1.85239C7.76594 1.85239 2.3262 7.29213 2.3262 14.0024C2.3262 20.7127 7.76594 26.1524 14.4762 26.1524Z" fill="white"/>
</svg>
