<svg width="28" height="29" viewBox="0 0 28 29" fill="none" xmlns="http://www.w3.org/2000/svg">
<circle cx="14.0158" cy="22.3751" r="1.8" fill="white"/>
<path fill-rule="evenodd" clip-rule="evenodd" d="M14.0157 27.7751C21.4716 27.7751 27.5157 21.731 27.5157 14.2751C27.5157 6.8193 21.4716 0.775146 14.0157 0.775146C6.5599 0.775146 0.515747 6.8193 0.515747 14.2751C0.515747 21.731 6.5599 27.7751 14.0157 27.7751ZM14.0158 26.4251C20.726 26.4251 26.1658 20.9854 26.1658 14.2751C26.1658 7.56484 20.726 2.1251 14.0158 2.1251C7.3055 2.1251 1.86576 7.56484 1.86576 14.2751C1.86576 20.9854 7.3055 26.4251 14.0158 26.4251Z" fill="white"/>
<circle cx="19.8657" cy="19.225" r="1.8" fill="white"/>
<circle cx="8.16572" cy="19.225" r="1.8" fill="white"/>
<path fill-rule="evenodd" clip-rule="evenodd" d="M13.9478 12.4884L19.6893 18.23L18.7347 19.1846L13.9478 14.3976L9.16079 19.1846L8.20619 18.23L13.9478 12.4884Z" fill="white"/>
<circle cx="22.1157" cy="13.8251" r="1.8" fill="white"/>
<circle cx="5.91572" cy="13.8251" r="1.8" fill="white"/>
<path fill-rule="evenodd" clip-rule="evenodd" d="M13.9478 4.77051L22.5929 13.4156L21.6383 14.3702L13.9478 6.6797L6.25721 14.3702L5.30262 13.4156L13.9478 4.77051Z" fill="white"/>
</svg>
