<svg width="28" height="28" viewBox="0 0 28 28" fill="none" xmlns="http://www.w3.org/2000/svg">
<path fill-rule="evenodd" clip-rule="evenodd" d="M14.4762 27.9524C21.932 27.9524 27.9762 21.9082 27.9762 14.4524C27.9762 6.99655 21.932 0.952393 14.4762 0.952393C7.02035 0.952393 0.976196 6.99655 0.976196 14.4524C0.976196 21.9082 7.02035 27.9524 14.4762 27.9524ZM14.4762 26.6023C21.1864 26.6023 26.6262 21.1626 26.6262 14.4523C26.6262 7.74208 21.1864 2.30234 14.4762 2.30234C7.76591 2.30234 2.32617 7.74208 2.32617 14.4523C2.32617 21.1626 7.76591 26.6023 14.4762 26.6023Z" fill="white"/>
<path d="M19.4261 17.9961C20.9173 17.9961 22.1261 16.8074 22.1261 15.3411C22.1261 13.8747 20.9173 12.6861 19.4261 12.6861C18.89 12.6861 18.3903 12.8397 17.9702 13.1047C17.5521 11.3432 15.9449 10.0311 14.0261 10.0311C11.9369 10.0311 10.2171 11.5867 9.99939 13.5844C9.68665 13.4341 9.33516 13.3498 8.96365 13.3498C7.65887 13.3498 6.60115 14.3899 6.60115 15.6729C6.60115 16.956 7.65887 17.9961 8.96365 17.9961C12.4511 17.9961 15.9386 17.9961 19.4261 17.9961ZM19.4261 18.6598C15.9386 18.6598 12.4511 18.6598 8.96365 18.6598C7.28608 18.6598 5.92615 17.3225 5.92615 15.6729C5.92615 14.0233 7.28608 12.6861 8.96365 12.6861C9.14101 12.6861 9.31482 12.701 9.48385 12.7297C10.0504 10.7881 11.8695 9.36731 14.0261 9.36731C15.9764 9.36731 17.6507 10.5292 18.3722 12.1873C18.7038 12.0802 19.0581 12.0223 19.4261 12.0223C21.2901 12.0223 22.8011 13.5082 22.8011 15.3411C22.8011 17.174 21.2901 18.6598 19.4261 18.6598Z" fill="white"/>
<path fill-rule="evenodd" clip-rule="evenodd" d="M17.6778 13.8213L17.5324 13.2087C17.1625 11.6502 15.7367 10.4811 14.0262 10.4811C12.163 10.4811 10.6392 11.8674 10.4468 13.6332L10.3779 14.2655L9.80457 13.9901C9.55151 13.8685 9.26651 13.7999 8.9637 13.7999C7.90029 13.7999 7.0512 14.6456 7.0512 15.673C7.0512 16.7004 7.90029 17.5461 8.9637 17.5461H19.4262C20.676 17.5461 21.6762 16.5518 21.6762 15.3411C21.6762 14.1304 20.676 13.1361 19.4262 13.1361C18.9771 13.1361 18.5604 13.2646 18.2104 13.4854L17.6778 13.8213ZM9.56545 13.4259C9.37333 13.3763 9.17165 13.3499 8.9637 13.3499C7.65892 13.3499 6.6012 14.39 6.6012 15.673C6.6012 16.956 7.65892 17.9961 8.9637 17.9961H19.4262C20.9174 17.9961 22.1262 16.8074 22.1262 15.3411C22.1262 13.8748 20.9174 12.6861 19.4262 12.6861C19.0556 12.6861 18.7024 12.7595 18.3809 12.8924C18.2373 12.9518 18.1 13.023 17.9703 13.1048C17.9342 12.9531 17.8894 12.8046 17.8363 12.6601C17.2729 11.1269 15.7797 10.0311 14.0262 10.0311C12.0998 10.0311 10.4875 11.3537 10.0772 13.1258C10.0425 13.2756 10.0164 13.4287 9.99944 13.5844C9.86175 13.5183 9.71656 13.4649 9.56545 13.4259ZM8.9637 19.1099C7.04476 19.1099 5.4762 17.5782 5.4762 15.673C5.4762 13.7678 7.04476 12.2361 8.9637 12.2361C9.03376 12.2361 9.10338 12.2382 9.1725 12.2422C9.90445 10.2977 11.804 8.91736 14.0262 8.91736C16.0187 8.91736 17.7512 10.027 18.6159 11.6572C18.8774 11.6016 19.1485 11.5724 19.4262 11.5724C21.5315 11.5724 23.2512 13.2526 23.2512 15.3411C23.2512 17.4296 21.5315 19.1099 19.4262 19.1099H8.9637ZM18.3722 12.1874C17.6507 10.5292 15.9764 9.36736 14.0262 9.36736C11.8696 9.36736 10.0504 10.7881 9.4839 12.7297C9.31487 12.7011 9.14106 12.6861 8.9637 12.6861C7.28613 12.6861 5.9262 14.0234 5.9262 15.673C5.9262 17.3226 7.28613 18.6599 8.9637 18.6599H19.4262C21.2902 18.6599 22.8012 17.174 22.8012 15.3411C22.8012 13.5082 21.2902 12.0224 19.4262 12.0224C19.0581 12.0224 18.7038 12.0803 18.3722 12.1874Z" fill="white"/>
</svg>
