<svg width="28" height="27" viewBox="0 0 28 27" fill="none" xmlns="http://www.w3.org/2000/svg"><path fill-rule="evenodd" clip-rule="evenodd" d="M13.926 25.5c6.627 0 12-5.373 12-12s-5.373-12-12-12c-6.628 0-12 5.373-12 12s5.372 12 12 12zm0 1.5c7.456 0 13.5-6.044 13.5-13.5S21.382 0 13.926 0 .426 6.044.426 13.5 6.47 27 13.926 27z" fill="#000"/><path fill-rule="evenodd" clip-rule="evenodd" d="M16.955 18.32a.65.65 0 0 1-.9 0l-2.261-2.192.45-.437 1.81-1.755.45-.436 2.711 2.628-.45.436-1.81 1.755z" fill="#000" fill-opacity=".48"/><path fill-rule="evenodd" clip-rule="evenodd" d="M14.244 15.691l-.45.437-2.71-2.628s.2-.196.45-.437l1.81-1.755.45-.436 2.71 2.628-.45.436-1.81 1.755z" fill="#000" fill-opacity=".35"/><path fill-rule="evenodd" clip-rule="evenodd" d="M10.633 8.68a.65.65 0 0 1 .9 0l2.261 2.192-.45.437-1.81 1.755c-.25.24-.45.436-.45.436l-2.711-2.628.45-.436 1.81-1.755z" fill="#000" fill-opacity=".48"/><path fill-rule="evenodd" clip-rule="evenodd" d="M18.765 11.309a.65.65 0 0 1 .9 0l2.26 2.19s-.2.196-.45.437l-1.81 1.755-.45.437-2.71-2.628.45-.437 1.81-1.755zM6.112 13.063a.604.604 0 0 0 0 .873l2.26 2.192.45-.437 1.811-1.755.45-.436-2.71-2.628-.45.436-1.81 1.755z" fill="#000" fill-opacity=".65"/></svg>