<svg width="61" height="61" viewBox="0 0 61 61" fill="none" xmlns="http://www.w3.org/2000/svg"><path fill-rule="evenodd" clip-rule="evenodd" d="M37.997 42.473a1.628 1.628 0 0 1-2.251 0l-5.651-5.478 1.126-1.091 4.525-4.388 1.125-1.091 6.777 6.57-1.126 1.09-4.525 4.388z" fill="#000" fill-opacity=".29"/><path fill-rule="evenodd" clip-rule="evenodd" d="M31.221 35.903l-1.126 1.091-6.776-6.57 1.125-1.09 4.526-4.388 1.126-1.091 6.776 6.57-1.126 1.09-4.525 4.388z" fill="#000" fill-opacity=".47"/><path fill-rule="evenodd" clip-rule="evenodd" d="M22.194 18.377a1.626 1.626 0 0 1 2.25 0l5.651 5.478-1.125 1.091-4.526 4.388-1.125 1.09-6.776-6.569s.503-.489 1.125-1.09l4.526-4.388z" fill="#000" fill-opacity=".29"/><path fill-rule="evenodd" clip-rule="evenodd" d="M42.523 24.946a1.627 1.627 0 0 1 2.25 0l5.652 5.479-1.125 1.09-4.526 4.388-1.125 1.091-6.777-6.57 1.126-1.09 4.525-4.388zM10.891 29.334a1.51 1.51 0 0 0 0 2.181l5.652 5.48s.503-.49 1.125-1.092l4.526-4.387 1.125-1.092-6.776-6.57-1.126 1.092-4.526 4.388z" fill="#000" fill-opacity=".2"/><path fill-rule="evenodd" clip-rule="evenodd" d="M30.425 59.35C46.4 59.35 59.35 46.4 59.35 30.425 59.35 14.45 46.4 1.5 30.425 1.5 14.45 1.5 1.5 14.45 1.5 30.425 1.5 46.4 14.45 59.35 30.425 59.35zm0 1.5c16.803 0 30.425-13.622 30.425-30.425S47.228 0 30.425 0 0 13.622 0 30.425 13.622 60.85 30.425 60.85z" fill="#000"/></svg>