<svg width="61" height="61" viewBox="0 0 61 61" fill="none" xmlns="http://www.w3.org/2000/svg">
<path opacity="0.109" d="M15.238 21.3333H22.8571V36.5713H15.238V21.3333ZM15.238 44.1904H22.8571V51.8094H15.238V44.1904ZM30.4761 21.3333H38.0952V28.9523H30.4761V21.3333Z" fill="white"/>
<path opacity="0.201" d="M45.7142 13.7143V21.3333H38.0952V13.7143H45.7142ZM53.3333 28.9524V36.5714H45.7142V28.9524H53.3333ZM38.0952 6.09521V13.7143L30.4761 13.7143V6.09521L38.0952 6.09521ZM15.238 13.7143V21.3333L7.61897 21.3333V13.7143H15.238ZM15.238 28.9524V36.5714H7.61897V28.9524H15.238ZM30.4761 44.1905V51.8095H22.8571V44.1905H30.4761Z" fill="white"/>
<path d="M30.4762 60.9524C13.6447 60.9524 0 47.3077 0 30.4762C0 13.6447 13.6447 0 30.4762 0C47.3077 0 60.9524 13.6447 60.9524 30.4762C60.9524 47.3077 47.3077 60.9524 30.4762 60.9524ZM30.4762 59.4286C46.4661 59.4286 59.4286 46.4661 59.4286 30.4762C59.4286 14.4862 46.4661 1.52381 30.4762 1.52381C14.4862 1.52381 1.52381 14.4862 1.52381 30.4762C1.52381 46.4661 14.4862 59.4286 30.4762 59.4286Z" fill="white"/>
<path d="M42.6666 38.0953C46.0329 38.0953 48.7619 35.3664 48.7619 32.0001C48.7619 28.6337 46.0329 25.9048 42.6666 25.9048C41.4562 25.9048 40.3282 26.2576 39.3799 26.866C38.4359 22.8219 34.8078 19.8096 30.4761 19.8096C25.7596 19.8096 21.8772 23.3811 21.3858 27.9671C20.6797 27.6222 19.8863 27.4286 19.0476 27.4286C16.1021 27.4286 13.7142 29.8164 13.7142 32.762C13.7142 35.7075 16.1021 38.0953 19.0476 38.0953C26.9184 38.0953 34.7941 38.0953 42.6666 38.0953ZM42.6666 39.6191C34.7936 39.6191 26.9206 39.6191 19.0476 39.6191C15.2605 39.6191 12.1904 36.5491 12.1904 32.762C12.1904 28.9749 15.2605 25.9048 19.0476 25.9048C19.448 25.9048 19.8403 25.9391 20.2219 26.005C21.5008 21.5475 25.6076 18.2858 30.4761 18.2858C34.8788 18.2858 38.6584 20.9531 40.2873 24.7599C41.0359 24.514 41.8357 24.381 42.6666 24.381C46.8745 24.381 50.2857 27.7922 50.2857 32.0001C50.2857 36.2079 46.8745 39.6191 42.6666 39.6191Z" fill="white"/>
</svg>
