<svg width="61" height="61" viewBox="0 0 61 61" fill="none" xmlns="http://www.w3.org/2000/svg">
<path opacity="0.051" d="M30.4762 51.8095V59.4285H21.3333L15.2381 56.3809V51.8095H22.8571V44.1904H30.4762V51.8095ZM22.8571 28.9523V13.7142H45.7143H53.3333V21.3333H45.7143V28.9523H30.4762V36.5714H22.8571V28.9523ZM1.5238 28.9523H7.61904V36.5714H1.5238V28.9523ZM7.61904 13.7142H15.2381V21.3333H7.61904V13.7142ZM38.0952 36.5714H45.7143V51.8095H38.0952V36.5714ZM15.2381 36.5714H22.8571V44.1904H15.2381V36.5714Z" fill="white"/>
<path opacity="0.17" d="M15.2381 21.3333H22.8571V36.5714H15.2381V21.3333ZM13.7143 6.09521H15.2381V13.7143H7.61902V12.1905L13.7143 6.09521ZM15.2381 44.1905H22.8571V51.8095H15.2381V44.1905ZM45.7143 44.1905H53.3333V50.2857L51.8095 51.8095H45.7143V44.1905ZM30.4762 51.8095H38.0952V59.4285H30.4762V51.8095ZM30.4762 21.3333H38.0952V28.9524H30.4762V21.3333Z" fill="white"/>
<path opacity="0.311" d="M38.0953 13.7143L45.7143 13.7143V21.3333H38.0953H30.4762V13.7143V6.09524V0L38.0953 1.52381V6.09524V13.7143ZM54.8572 13.7143L58.6667 21.3333H53.3334V13.7143H54.8572ZM53.3334 28.9524V36.5714H45.7143V28.9524H53.3334ZM15.2381 13.7143V21.3333H7.61907V13.7143L15.2381 13.7143ZM7.61907 21.3333V28.9524H1.52383V21.3333H7.61907ZM15.2381 28.9524V36.5714H7.61907V28.9524H15.2381ZM7.61907 36.5714V48.7619L3.04764 42.6667L1.52383 36.5714H7.61907ZM30.4762 44.1905V51.8095H22.8572V44.1905H30.4762Z" fill="white"/>
<path d="M30.4762 60.9524C13.6447 60.9524 0 47.3077 0 30.4762C0 13.6447 13.6447 0 30.4762 0C47.3077 0 60.9524 13.6447 60.9524 30.4762C60.9524 47.3077 47.3077 60.9524 30.4762 60.9524ZM30.4762 59.4286C46.4661 59.4286 59.4286 46.4661 59.4286 30.4762C59.4286 14.4862 46.4661 1.52381 30.4762 1.52381C14.4862 1.52381 1.52381 14.4862 1.52381 30.4762C1.52381 46.4661 14.4862 59.4286 30.4762 59.4286Z" fill="white"/>
<path d="M29.3505 33.2495C29.352 33.3745 29.3474 33.4874 29.3505 33.5691C29.3653 33.9671 29.452 34.2717 29.5043 34.6383C29.5989 35.4231 29.6781 36.0737 29.6292 36.6784C29.5816 36.9064 29.4137 37.1149 29.264 37.2598L29.2375 37.7356C28.5627 37.7915 27.8833 37.8939 27.2047 38.048C24.2848 38.7109 21.7708 40.215 19.8568 42.2458C19.7326 42.161 19.5153 42.0052 19.4507 41.9574C19.2499 41.9845 19.047 42.0465 18.7827 41.8925C18.2795 41.5538 17.8211 41.0862 17.2665 40.5229C17.0124 40.2535 16.8284 39.9969 16.5265 39.7372C16.4579 39.6782 16.3532 39.5984 16.2766 39.5377C16.0405 39.3496 15.7621 39.2514 15.4932 39.2422C15.1475 39.2304 14.8147 39.3655 14.597 39.6387C14.2098 40.1243 14.3338 40.8665 14.8733 41.2966C14.9642 41.3688 15.055 41.4458 15.1232 41.4961C15.4436 41.7326 15.7363 41.8537 16.0555 42.0415C16.7281 42.4569 17.2856 42.8013 17.7279 43.2165C17.9006 43.4006 17.9308 43.725 17.9537 43.8653L18.3142 44.1873C16.3847 47.091 15.4917 50.6776 16.0195 54.3321L15.5485 54.4691C15.4244 54.6294 15.249 54.8816 15.0655 54.9569C14.8654 55.0199 13.7194 54.5907 13.7143 54.8571C13.7046 55.361 15.0501 56.662 15.4428 56.6052C15.6935 56.5856 15.9577 56.7599 16.0891 56.8335L16.5793 56.7494C17.142 58.4938 23.8118 60.9674 30.475 60.9524C37.1705 60.9372 43.8595 58.4251 44.3995 56.7278C44.5451 56.7506 44.798 56.7954 44.8801 56.8119C45.0492 56.7003 45.2047 56.5548 45.5097 56.5788C46.1101 56.6656 47.0645 55.1746 46.6979 55.1151C46.41 55.0684 46.1414 55.0106 45.8869 54.9304C45.651 54.8389 45.4832 54.5582 45.4015 54.4426L44.9474 54.3105C45.1829 52.607 45.1194 50.8341 44.7119 49.0603C44.3007 47.2699 43.5739 45.6324 42.6046 44.1897C42.7211 44.0838 42.9411 43.889 43.0035 43.8316C43.0217 43.6299 43.0061 43.4183 43.2149 43.1949C43.6572 42.7796 44.2148 42.4353 44.8873 42.0199C45.2065 41.8321 45.5016 41.711 45.822 41.4745C45.8945 41.421 45.9934 41.3362 46.0695 41.275C46.6089 40.8447 46.7331 40.1025 46.3459 39.617C45.9586 39.1315 45.2081 39.0858 44.6687 39.5161C44.5919 39.5769 44.4877 39.6563 44.4188 39.7156C44.1168 39.9753 43.9304 40.2318 43.6763 40.5013C43.1217 41.0646 42.6633 41.5345 42.1601 41.8733C41.942 42.0003 41.6226 41.9564 41.4777 41.9478L41.05 42.253C38.6111 39.6955 35.2904 38.0604 31.7149 37.7428C31.7049 37.593 31.6918 37.3221 31.6885 37.2406C31.5421 37.1006 31.3653 36.981 31.3208 36.6784C31.2719 36.0737 31.3536 35.4231 31.4482 34.6383C31.5004 34.2717 31.5871 33.9671 31.602 33.5691C31.6053 33.4786 31.5999 33.3473 31.5996 33.2495C31.5995 32.5595 31.0961 31.9999 30.475 32C29.854 32.0001 29.3504 32.5595 29.3505 33.2495ZM29.0669 40.7224L28.7329 46.6214L28.7089 46.6334C28.6865 47.1611 28.2522 47.5825 27.7189 47.5825C27.5005 47.5825 27.2989 47.5124 27.1351 47.3927L22.2885 43.9686C23.7751 42.5068 25.6766 41.4266 27.8679 40.929C28.2682 40.8381 28.6683 40.7707 29.0669 40.7224ZM31.8855 40.7224C34.4439 41.037 36.81 42.1955 38.6231 43.971L33.8174 47.3783C33.374 47.6826 32.773 47.6053 32.4406 47.1884C32.3044 47.0177 32.2329 46.8169 32.2243 46.6142L31.8855 40.7224ZM20.5344 46.172L24.9509 50.1223L24.9461 50.1463C25.3447 50.4929 25.4035 51.0943 25.071 51.5112C24.9348 51.6819 24.7525 51.7965 24.5568 51.85L18.8909 53.5031C18.6027 50.8684 19.2237 48.3073 20.5344 46.172ZM41.8333 49.7138C42.1256 50.9862 42.1989 52.2564 42.0784 53.4839L36.3884 51.8452L36.3836 51.8211C35.8741 51.6819 35.561 51.1636 35.6796 50.6437C35.7282 50.4308 35.8412 50.2506 35.9944 50.1175L40.3844 46.1744C41.0406 47.238 41.5375 48.426 41.8333 49.7138ZM29.5691 50.4275H31.3785L32.503 51.8331L32.0993 53.5872L30.475 54.3682L28.8459 53.5848L28.4422 51.8307L29.5691 50.4275ZM35.5979 55.2548L41.4633 56.2328C41.3009 56.689 40.9958 57.3445 40.5481 58.1993L35.7474 59.6393L34.5022 56.6316C34.3006 56.1368 34.5096 55.5679 34.99 55.3365C35.113 55.2773 35.2415 55.2445 35.3696 55.238C35.4465 55.2341 35.5231 55.241 35.5979 55.2548ZM26.4863 56.0333C26.5349 56.2463 26.5112 56.4573 26.431 56.6437L26.4478 56.6653L25.2948 59.4518L20.4263 58.1758C19.9887 57.3445 19.6883 56.7033 19.5252 56.252L25.3305 55.2668C25.4051 55.2669 25.4709 55.2611 25.5348 55.262C25.9816 55.2683 26.3825 55.5784 26.4863 56.0333ZM30.439 57.6432C30.5946 57.6375 30.7526 57.6695 30.9027 57.7418C31.0995 57.8365 31.2516 57.9857 31.3473 58.1647L32.3188 59.9069L28.5052 60.1386L29.5956 58.1671C29.7717 57.8469 30.0965 57.6558 30.439 57.6432Z" fill="white"/>
</svg>
