<svg width="61" height="61" viewBox="0 0 61 61" fill="none" xmlns="http://www.w3.org/2000/svg">
<path d="M17.7801 41.6373L30.465 28.9524L43.1611 41.6424C43.5446 41.4683 43.9705 41.3714 44.419 41.3714C46.1022 41.3714 47.4667 42.7359 47.4667 44.419C47.4667 46.1022 46.1022 47.4667 44.419 47.4667C42.7359 47.4667 41.3714 46.1022 41.3714 44.419C41.3714 43.7789 41.5688 43.1848 41.906 42.6944L30.4686 31.2569L19.0401 42.6854C19.3811 43.1775 19.581 43.775 19.581 44.419C19.581 46.1022 18.2165 47.4667 16.5333 47.4667C14.8502 47.4667 13.4857 46.1022 13.4857 44.419C13.4857 42.7359 14.8502 41.3714 16.5333 41.3714C16.9775 41.3714 17.3995 41.4665 17.7801 41.6373ZM30.4686 11.4474L13.1735 28.7425C13.5145 29.2347 13.7143 29.8321 13.7143 30.4762C13.7143 32.1593 12.3498 33.5238 10.6667 33.5238C8.98351 33.5238 7.61905 32.1593 7.61905 30.4762C7.61905 28.793 8.98351 27.4286 10.6667 27.4286C11.1108 27.4286 11.5328 27.5236 11.9134 27.6944L30.465 9.14286L30.4686 9.14645L30.4722 9.14286L49.0285 27.6992C49.4118 27.5254 49.8374 27.4286 50.2857 27.4286C51.9689 27.4286 53.3333 28.793 53.3333 30.4762C53.3333 32.1593 51.9689 33.5238 50.2857 33.5238C48.6026 33.5238 47.2381 32.1593 47.2381 30.4762C47.2381 29.836 47.4355 29.242 47.7727 28.7515L30.4686 11.4474ZM30.4762 60.9524C13.6447 60.9524 0 47.3077 0 30.4762C0 13.6447 13.6447 0 30.4762 0C47.3077 0 60.9524 13.6447 60.9524 30.4762C60.9524 47.3077 47.3077 60.9524 30.4762 60.9524ZM30.4762 59.4286C46.4661 59.4286 59.4286 46.4661 59.4286 30.4762C59.4286 14.4862 46.4661 1.52381 30.4762 1.52381C14.4862 1.52381 1.52381 14.4862 1.52381 30.4762C1.52381 46.4661 14.4862 59.4286 30.4762 59.4286ZM30.4762 53.3333C28.793 53.3333 27.4286 51.9689 27.4286 50.2857C27.4286 48.6026 28.793 47.2381 30.4762 47.2381C32.1593 47.2381 33.5238 48.6026 33.5238 50.2857C33.5238 51.9689 32.1593 53.3333 30.4762 53.3333Z" fill="white"/>
</svg>
