<svg width="28" height="28" viewBox="0 0 28 28" fill="none" xmlns="http://www.w3.org/2000/svg">
<path fill-rule="evenodd" clip-rule="evenodd" d="M14.4762 27.9524C21.932 27.9524 27.9762 21.9082 27.9762 14.4524C27.9762 6.99655 21.932 0.952393 14.4762 0.952393C7.02035 0.952393 0.976196 6.99655 0.976196 14.4524C0.976196 21.9082 7.02035 27.9524 14.4762 27.9524ZM14.4762 26.6024C21.1865 26.6024 26.6262 21.1627 26.6262 14.4524C26.6262 7.74213 21.1865 2.30239 14.4762 2.30239C7.76595 2.30239 2.32621 7.74213 2.32621 14.4524C2.32621 21.1627 7.76595 26.6024 14.4762 26.6024Z" fill="white"/>
<path fill-rule="evenodd" clip-rule="evenodd" d="M14.4762 19.4024C17.21 19.4024 19.4262 17.1863 19.4262 14.4524C19.4262 11.7186 17.21 9.50244 14.4762 9.50244C11.7424 9.50244 9.52621 11.7186 9.52621 14.4524C9.52621 17.1863 11.7424 19.4024 14.4762 19.4024ZM14.4762 18.0524C16.4645 18.0524 18.0762 16.4406 18.0762 14.4524C18.0762 12.4642 16.4645 10.8524 14.4762 10.8524C12.488 10.8524 10.8762 12.4642 10.8762 14.4524C10.8762 16.4406 12.488 18.0524 14.4762 18.0524Z" fill="white"/>
<path fill-rule="evenodd" clip-rule="evenodd" d="M22.0131 18.7327C22.0131 14.3603 18.569 10.8476 14.3593 10.8476L14.3593 9.49756C19.3492 9.49756 23.3631 13.6498 23.3631 18.7327C23.3631 23.8156 19.3492 27.9679 14.3593 27.9679L14.3593 26.6179C18.569 26.6179 22.0131 23.1051 22.0131 18.7327Z" fill="white"/>
<path fill-rule="evenodd" clip-rule="evenodd" d="M6.93933 10.1723C6.93933 14.5447 10.3834 18.0575 14.5931 18.0575L14.5931 19.4075C9.60314 19.4075 5.58933 15.2552 5.58933 10.1723C5.58933 5.08945 9.60315 0.937178 14.5931 0.937179L14.5931 2.28718C10.3834 2.28718 6.93933 5.79992 6.93933 10.1723Z" fill="white"/>
<path fill-rule="evenodd" clip-rule="evenodd" d="M18.7564 6.91567C14.384 6.91567 10.8712 10.3597 10.8712 14.5695H9.52124C9.52124 9.57949 13.6735 5.56567 18.7564 5.56567C23.8393 5.56567 27.9915 9.57949 27.9915 14.5695H26.6415C26.6415 10.3597 23.1288 6.91567 18.7564 6.91567Z" fill="white"/>
<path fill-rule="evenodd" clip-rule="evenodd" d="M10.196 21.9894C14.5684 21.9894 18.0812 18.5453 18.0812 14.3356L19.4312 14.3356C19.4312 19.3255 15.2789 23.3394 10.196 23.3394C5.11316 23.3394 0.96089 19.3255 0.960891 14.3356L2.31089 14.3356C2.31089 18.5453 5.82364 21.9894 10.196 21.9894Z" fill="white"/>
</svg>
